<?xml version="1.0" encoding="utf-8"?>
<!-- Generator: Adobe Illustrator 17.1.0, SVG Export Plug-In . SVG Version: 6.00 Build 0)  -->
<!DOCTYPE svg PUBLIC "-//W3C//DTD SVG 1.1//EN" "http://www.w3.org/Graphics/SVG/1.1/DTD/svg11.dtd">
<svg version="1.1" id="Слой_1" xmlns="http://www.w3.org/2000/svg" xmlns:xlink="http://www.w3.org/1999/xlink" x="0px" y="0px"
	 viewBox="0 0 141.7 85" enable-background="new 0 0 141.7 85" xml:space="preserve">
<path id="cart" fill="#F48120" d="M138.3,20.4c-0.6-0.6-1.4-1-2.2-1H70.1c0,0,0,0,0,0H43.5L39,5.3c0,0,0-0.1,0-0.1
	c0-0.1-0.1-0.2-0.1-0.3c0-0.1-0.1-0.2-0.1-0.2c-0.1-0.1-0.1-0.2-0.2-0.2c-0.1-0.1-0.1-0.2-0.2-0.2c-0.1-0.1-0.1-0.1-0.2-0.2
	c-0.1-0.1-0.2-0.1-0.2-0.2c-0.1-0.1-0.2-0.1-0.2-0.1c-0.1-0.1-0.2-0.1-0.3-0.1c-0.1,0-0.2-0.1-0.3-0.1c-0.1,0-0.2-0.1-0.3-0.1
	c-0.1,0-0.2,0-0.3,0c-0.1,0-0.2,0-0.3,0c0,0-0.1,0-0.1,0h-30c-1.7,0-3,1.3-3,3s1.3,3,3,3h27.8l8.5,26c3.7,12.6,10.1,31,17.8,37.5
	c8,6.7,23.7,7.5,30.1,7.5c0,0,0,0,0,0c3.6,0,7.7-0.2,11.7-0.8c0,0,0.1,0,0.1,0c0.3,0,0.6-0.1,0.8-0.1c7.3-1,14.4-3.1,19-6.5
	c12-8.9,16.7-45.9,17.2-50C139.2,21.9,138.9,21,138.3,20.4z M102.9,25.4l-1.6,21H77.6l-3.9-21H102.9z M45.9,25.4h21.7l3.9,21H52.4
	c-0.1-0.4-0.3-0.8-0.4-1.1l-3.5-10.8C47.4,31.1,46.6,28,45.9,25.4z M54.7,52.4h17.9l3.8,20.6c-5.5-1-9.8-2.7-12.4-4.8
	C60.8,65.4,57.5,59.3,54.7,52.4z M90.2,74.2c-2.6,0-5.2-0.1-7.6-0.3l-4-21.4h22.2l-1.6,21.3C96.4,74,93.3,74.2,90.2,74.2z M118.3,68
	c-2.8,2.1-7.4,3.7-12.9,4.8l1.5-20.4h19.8C124.4,59.5,121.6,65.5,118.3,68z M128.4,46.7c-0.4-0.2-0.8-0.3-1.3-0.3h-19.8l1.6-21h23.8
	C131.9,31,130.4,39,128.4,46.7z"/>
</svg>
