<?xml version="1.0" encoding="utf-8"?>
<!-- Generator: Adobe Illustrator 17.1.0, SVG Export Plug-In . SVG Version: 6.00 Build 0)  -->
<!DOCTYPE svg PUBLIC "-//W3C//DTD SVG 1.1//EN" "http://www.w3.org/Graphics/SVG/1.1/DTD/svg11.dtd">
<svg version="1.1" id="Слой_1" xmlns="http://www.w3.org/2000/svg" xmlns:xlink="http://www.w3.org/1999/xlink" x="0px" y="0px"
	 viewBox="0 0 56.7 56.7" enable-background="new 0 0 56.7 56.7" xml:space="preserve">
<path id="mobile" fill="#343433" d="M15.5,11.1l-0.2,0.3l-0.2-0.1l-1.8,2.6l0.2,0.1l-5.8,8.2c-0.9,1.3-0.6,3.1,0.7,4.1l2.2,1.5
	l-0.1,0.2l1.5,1.1l0.1-0.2l1.6,1.2l-0.1,0.2l1.2,0.8l0.1-0.2l1.6,1.1L16.5,32l1.2,0.8l0.1-0.2L37,46.2c1.3,0.9,3.1,0.6,4.1-0.7
	l7.7-11c0.9-1.3,0.6-3.1-0.7-4.1l-28.5-20C18.2,9.5,16.4,9.8,15.5,11.1z M13,17.5c0.1-0.2,0.4-0.2,0.5-0.1c0.2,0.1,0.2,0.4,0.1,0.5
	c-0.1,0.2-0.4,0.2-0.5,0.1C12.9,18,12.8,17.7,13,17.5z M13.5,19.6l1.6-2.2c0.1-0.1,0.2-0.1,0.3-0.1c0.1,0.1,0.1,0.2,0.1,0.3
	l-1.6,2.2c-0.1,0.1-0.2,0.1-0.3,0.1C13.5,19.9,13.5,19.7,13.5,19.6z M12.8,20.7c0.1-0.1,0.2-0.1,0.3-0.1c0.1,0.1,0.1,0.2,0.1,0.3
	C13.1,21,13,21.1,12.9,21C12.8,20.9,12.7,20.8,12.8,20.7z M44,39.3c-0.6,0.8-1.6,1-2.4,0.4c-0.8-0.6-1-1.6-0.4-2.4
	c0.6-0.8,1.6-1,2.4-0.4C44.3,37.4,44.5,38.5,44,39.3z M35.5,43.4L11.7,26.7l9.4-13.4l23.8,16.7L35.5,43.4z"/>
</svg>
