<?xml version="1.0" encoding="utf-8"?>
<!-- Generator: Adobe Illustrator 17.1.0, SVG Export Plug-In . SVG Version: 6.00 Build 0)  -->
<!DOCTYPE svg PUBLIC "-//W3C//DTD SVG 1.1//EN" "http://www.w3.org/Graphics/SVG/1.1/DTD/svg11.dtd">
<svg version="1.1" id="Слой_1" xmlns="http://www.w3.org/2000/svg" xmlns:xlink="http://www.w3.org/1999/xlink" x="0px" y="0px"
	 viewBox="0 0 56.7 56.7" enable-background="new 0 0 56.7 56.7" xml:space="preserve">
<g id="gym">
	<path fill="#343433" d="M14.9,21.7c-0.5-0.7-1.4-0.8-2.1-0.4l-2.6,1.8c-0.7,0.5-0.8,1.4-0.4,2.1l14.6,21.3c0.5,0.7,1.4,0.8,2.1,0.4
		l2.6-1.8c0.7-0.5,0.8-1.4,0.4-2.1L14.9,21.7z"/>
	<path fill="#343433" d="M31.8,10.1c-0.5-0.7-1.4-0.8-2.1-0.4l-2.6,1.8c-0.7,0.5-0.8,1.4-0.4,2.1l14.6,21.3c0.5,0.7,1.4,0.8,2.1,0.4
		l2.6-1.8c0.7-0.5,0.8-1.4,0.4-2.1L31.8,10.1z"/>
	<path fill="#343433" d="M41.1,15.6l-0.3,0.2l-2-2.9c-0.5-0.7-1.3-1-2-0.5l-1.4,1l9.3,13.5l1.4-1c0.7-0.5,0.8-1.2,0.4-1.8l-2.8-4
		l0.3-0.2c0.7-0.5,1.2-1.2,0.8-1.8l-1.4-2C42.9,15.3,41.8,15.2,41.1,15.6z"/>
	<path fill="#343433" d="M11.7,35.9l0.3-0.2l-2-2.9c-0.5-0.7-0.5-1.6,0.2-2l1.4-1l9.3,13.5l-1.4,1c-0.7,0.5-1.4,0.3-1.8-0.3l-2.8-4
		l-0.3,0.2c-0.7,0.5-1.5,0.7-2,0.1l-1.4-2C10.8,37.5,11,36.4,11.7,35.9z"/>
	<path fill="#343433" d="M32.3,23.5c-0.5-0.7-1.4-0.8-2.1-0.4l-7.7,5.3c-0.7,0.5-0.8,1.4-0.4,2.1l1.2,1.8c0.5,0.7,1.4,0.8,2.1,0.4
		l7.7-5.3c0.7-0.5,0.8-1.4,0.4-2.1L32.3,23.5z"/>
</g>
</svg>
