<?xml version="1.0" encoding="utf-8"?>
<!-- Generator: Adobe Illustrator 17.1.0, SVG Export Plug-In . SVG Version: 6.00 Build 0)  -->
<!DOCTYPE svg PUBLIC "-//W3C//DTD SVG 1.1//EN" "http://www.w3.org/Graphics/SVG/1.1/DTD/svg11.dtd">
<svg version="1.1" id="Слой_1" xmlns="http://www.w3.org/2000/svg" xmlns:xlink="http://www.w3.org/1999/xlink" x="0px" y="0px"
	 viewBox="0 0 59.5 59.5" enable-background="new 0 0 59.5 59.5" xml:space="preserve">
<g id="gift">
	<path fill="#343433" d="M42.7,36.1l5.6,4.7L34.2,57.6c-0.4,0.4-1,0.5-1.5,0.1L0.6,30.9c-0.4-0.4-0.5-1-0.1-1.5l14.1-16.8l5.6,4.7
		l-0.7,0.8c-2.1,2.6-0.9,4.5,0.4,5.7c-1.9,0.6-3.8,1.6-5.5,3.6c-0.7,0.9-0.9,2.1-0.5,3.2c0.2,0.5,0.5,0.9,0.9,1.2
		c0.5,0.4,1.1,0.6,1.7,0.7l1.2,0.1l0,0.4c0.1,0.8,0.5,1.6,1.1,2.1c0.3,0.3,0.7,0.5,1.1,0.6c1.2,0.4,2.5,0,3.3-1
		c0.6-0.7,1.6-1.3,2.8-1.8c-0.2,1.3-0.7,2.4-1.2,3.1c-0.8,1-1,2.3-0.4,3.5c0.2,0.4,0.4,0.7,0.8,1c0.6,0.5,1.5,0.8,2.3,0.7l0.4,0
		l0.3,1.1c0.2,0.6,0.5,1.1,1,1.5c0.4,0.3,0.9,0.6,1.4,0.7c1.1,0.2,2.3-0.2,3-1.1c1.7-2,2.4-4.1,2.6-6c1.5,1.1,3.6,1.9,5.7-0.6
		L42.7,36.1z M58.6,31.7L21.7,0.8c-0.4-0.4-1.1-0.3-1.5,0.1l-6,7.2c-0.4,0.4-0.3,1.1,0.1,1.5l1.6,1.3l5.6,4.7l1.3-1.6
		c2.9-3.5,5.9-1.9,7.4-0.7c0.5,0.4,1.2,1.2,2,3.3c2.1-0.1,4.2,0.5,5.9,1.9c1.7,1.4,2.7,3.3,2.9,5.4c2.2,0.4,3.1,1,3.6,1.4
		c1.5,1.3,3.6,3.9,0.7,7.4L44,34.5l5.6,4.7l1.6,1.3c0.4,0.4,1.1,0.3,1.5-0.1l6-7.2C59.1,32.7,59,32.1,58.6,31.7z M36.6,35.1
		c1.6,1.3,2.4,2,3.7,0.4l3.4-4c0.7-0.8,2-2.4-0.4-4.4c-0.8-0.7-2.9-1-4.4-1.2c0.3-2.1-0.5-4.2-2.2-5.6c-1.7-1.4-3.9-1.8-5.9-1.2
		c-0.4-1.4-1.2-3.4-2-4.1c-2.4-2-3.8-0.4-4.4,0.4l-3.4,4c-1.3,1.6-0.5,2.3,1.1,3.6c1.3,1.1,3.2,1.3,4.3,1.3c0,0.3,0,0.6,0,0.9
		c-0.3,0-0.6,0-0.8,0c-2.8,0-6.7,0-9.6,3.5c-0.2,0.3-0.3,0.7-0.2,1.1c0.1,0.4,0.5,0.6,0.9,0.6l2.9,0.3l0.2,2.1
		c0,0.3,0.2,0.5,0.4,0.7c0.1,0.1,0.2,0.2,0.4,0.2c0.4,0.1,0.8,0,1.1-0.3c1.7-2.1,5-2.9,6.8-3.2c0,1.7-0.2,5.2-2,7.2
		c-0.3,0.3-0.3,0.8-0.1,1.2c0.1,0.1,0.2,0.2,0.3,0.3c0.2,0.2,0.5,0.3,0.8,0.2l2.1-0.2l0.8,2.8c0.1,0.4,0.4,0.7,0.8,0.7
		c0.4,0.1,0.8-0.1,1-0.4c3-3.6,2.3-7.3,1.8-10.1c-0.1-0.3-0.1-0.6-0.1-0.8c0.3,0,0.6-0.1,0.9-0.2C34.8,32.2,35.3,34,36.6,35.1z"/>
</g>
</svg>
