<?xml version="1.0" encoding="utf-8"?>
<!-- Generator: Adobe Illustrator 17.1.0, SVG Export Plug-In . SVG Version: 6.00 Build 0)  -->
<!DOCTYPE svg PUBLIC "-//W3C//DTD SVG 1.1//EN" "http://www.w3.org/Graphics/SVG/1.1/DTD/svg11.dtd">
<svg version="1.1" id="Слой_1" xmlns="http://www.w3.org/2000/svg" xmlns:xlink="http://www.w3.org/1999/xlink" x="0px" y="0px"
	 viewBox="0 0 56.7 56.7" enable-background="new 0 0 56.7 56.7" xml:space="preserve">
<g id="bear">
	<g>
		<path fill="#343433" d="M21.7,16.3c-0.5-0.5-1.7-0.1-2.7,0.8c-1.1,0.9-1.6,2.1-1.1,2.6c0.5,0.5,1.7,0.2,2.8-0.7
			C21.7,18.1,22.2,16.9,21.7,16.3L21.7,16.3z M50.6,29.3c-1.5-0.8-2.2-0.7-5,1.7c-1-0.6-2-1.3-3.2-1.7c-1.1-0.4-2.1-0.7-3.2-0.9
			c-0.5-1.3-1.3-2.6-2.2-3.7c-0.1-0.1-0.2-0.2-0.3-0.3c4.4,0.1,7.8-1.3,8-3.3c0.2-2.3-3.8-4.5-8.9-5c-3.5-0.3-6.7,0.2-8.3,1.4
			c0.3-2.4-0.3-4.8-2-6.7c0.5-0.5,0.8-1.1,0.9-1.8l0-0.2c0.1-2.2-2.2-4.2-5.3-4.6c-3.2-0.4-6,1.1-6.3,3.3c0,0.4,0,0.7,0.1,1.1
			c-0.8,0.4-1.5,0.8-2.2,1.4c-0.8,0.7-1.4,1.4-1.9,2.2c-0.3-0.1-0.5-0.1-0.8-0.1C7.9,12,6,14.6,6,17.8c0,3.1,1.7,5.7,3.8,5.8l0.2,0
			c0.7,0,1.4-0.3,2.1-0.8c1.5,1.6,3.6,2.5,5.7,2.6c-1.6,1.3-2.9,4.4-3.2,8.2c-0.5,5.1,1,9.5,3.2,9.7c2.1,0.2,4.1-3.1,4.8-7.6
			c0.1,0.2,0.3,0.4,0.4,0.5c0.9,1.1,2,2.1,3.2,2.8c0,1,0.1,2.1,0.3,3.3c0.2,1.2,0.6,2.4,1.1,3.5c-2.8,2.3-3.1,2.9-2.6,4.6
			c0.5,1.6,2.9,2.2,4.6,2.1c2.2,0,4.9-1.5,6.1-2.9c0.8-1,1.5-2.4,1.4-3.9c0-1.7-0.1-2.3-0.5-4.2c-0.2-1-0.5-1.9-0.8-2.8
			c0.2-0.1,0.4-0.3,0.6-0.5c0.2-0.2,0.4-0.3,0.6-0.5c0.8,0.5,1.6,0.9,2.6,1.3c1.8,0.7,2.4,0.9,4.1,1.2c1.4,0.3,2.9-0.1,4.1-0.7
			c1.6-0.9,3.6-3.2,4-5.4C52.1,32.6,52.1,30.1,50.6,29.3z M18.5,12.8c0.3-0.3,0.8-0.2,1.1,0.1c0.3,0.3,0.2,0.8-0.1,1.1
			c-0.3,0.3-0.8,0.2-1.1-0.1C18.2,13.6,18.2,13.1,18.5,12.8z M14.8,16.9c-0.3-0.3-0.2-0.8,0.1-1.1c0.3-0.3,0.8-0.2,1.1,0.1
			c0.3,0.3,0.2,0.8-0.1,1.1C15.6,17.3,15.1,17.3,14.8,16.9z M23.6,22.4c-2,1.8-4.9,1.8-6.5,0c-1.5-1.8-1.2-4.6,0.9-6.4
			c2-1.7,4.8-1.8,6.4-0.1l0.1,0.1C26,17.8,25.6,20.7,23.6,22.4z"/>
	</g>
</g>
</svg>
