<?xml version="1.0" encoding="utf-8"?>
<!-- Generator: Adobe Illustrator 17.1.0, SVG Export Plug-In . SVG Version: 6.00 Build 0)  -->
<!DOCTYPE svg PUBLIC "-//W3C//DTD SVG 1.1//EN" "http://www.w3.org/Graphics/SVG/1.1/DTD/svg11.dtd">
<svg version="1.1" id="Слой_1" xmlns="http://www.w3.org/2000/svg" xmlns:xlink="http://www.w3.org/1999/xlink" x="0px" y="0px"
	 viewBox="0 0 56.7 56.7" enable-background="new 0 0 56.7 56.7" xml:space="preserve">
<g id="tea">
	<ellipse transform="matrix(0.5457 -0.838 0.838 0.5457 1.0658 35.2769)" fill="#343433" cx="33.1" cy="16.7" rx="2.9" ry="2.8"/>
	<polygon fill="#343433" points="8.9,23.5 5.1,8.7 11.9,10 16.7,18.2 	"/>
	<path fill="#343433" d="M45.9,25c-2.1-1.4-4.6-1.8-6.9-1.5c-1.3-2.7-3.3-5.1-6-6.9c-4.6-3-10.2-3.4-15.1-1.6l22.7,14.8
		c-0.1-0.9-0.2-1.8-0.4-2.7c1.3,0,2.5,0.3,3.7,1c3,1.9,3.8,6,1.8,9c-1.7,2.6-4.8,3.6-7.6,2.6c1.6-2.7,2.4-5.6,2.5-8.6L16.8,15.5
		c-2.8,1.3-5.3,3.4-7.2,6.2c-3.3,5-3.6,11.1-1.4,16.1l15.4,10.1c4.5,0,8.9-1.9,12.2-5.2c4.5,2.2,10.2,0.8,13-3.6
		C51.9,34.4,50.6,28.1,45.9,25z"/>
</g>
</svg>
