<?xml version="1.0" encoding="utf-8"?>
<!-- Generator: Adobe Illustrator 17.1.0, SVG Export Plug-In . SVG Version: 6.00 Build 0)  -->
<!DOCTYPE svg PUBLIC "-//W3C//DTD SVG 1.1//EN" "http://www.w3.org/Graphics/SVG/1.1/DTD/svg11.dtd">
<svg version="1.1" id="Слой_1" xmlns="http://www.w3.org/2000/svg" xmlns:xlink="http://www.w3.org/1999/xlink" x="0px" y="0px"
	 viewBox="0 0 56.7 56.7" enable-background="new 0 0 56.7 56.7" xml:space="preserve">
<g id="money">
	<g>
		<path fill="#343433" d="M33.9,34l8.1,1.7l1.4-6.5l-8.1-1.7L33.9,34z M38.5,30.2c0.6,0.1,1,0.8,0.8,1.5c-0.1,0.7-0.7,1.1-1.3,1
			c-0.6-0.1-1-0.8-0.8-1.5C37.3,30.6,37.9,30.1,38.5,30.2z"/>
	</g>
	<path fill="#343433" d="M34.9,26.1l8.7,1.8l1-4.8c0.2-1.2-0.4-2.3-1.4-2.5l-1.8-0.4l0.1-4.3c0-0.9-0.3-1.7-0.8-2.2
		c-0.4-0.4-1-0.6-1.5-0.5l-21,2c-0.6,0.1-1.1,0.3-1.5,0.8l0,0c-0.3,0.3-0.4,0.7-0.5,1.1l-1.3,6l-0.8,3.9l-1.8,8.4
		c-0.2,1.2,0.4,2.3,1.4,2.5L23,40l12.4,2.6l3.2,0.7c1,0.2,2-0.6,2.3-1.7l1-4.7L33.1,35c-0.3-0.1-0.5-0.4-0.5-0.7l1.6-7.7
		C34.3,26.3,34.6,26.1,34.9,26.1z M21.9,16.2l17.4-1.7c0.2,0,0.4,0.1,0.6,0.2c0.3,0.3,0.4,0.7,0.4,1.2l-0.1,4L21.9,16.2z"/>
</g>
</svg>
