<?xml version="1.0" encoding="utf-8"?>
<!-- Generator: Adobe Illustrator 17.1.0, SVG Export Plug-In . SVG Version: 6.00 Build 0)  -->
<!DOCTYPE svg PUBLIC "-//W3C//DTD SVG 1.1//EN" "http://www.w3.org/Graphics/SVG/1.1/DTD/svg11.dtd">
<svg version="1.1" id="Слой_1" xmlns="http://www.w3.org/2000/svg" xmlns:xlink="http://www.w3.org/1999/xlink" x="0px" y="0px"
	 viewBox="0 0 56.7 56.7" enable-background="new 0 0 56.7 56.7" xml:space="preserve">
<path id="bone" fill="#343433" d="M40.9,17.7c-0.4,1-1.2,1.8-2.1,2.3c-0.7,0.3-1.5,0.4-2.3,0.3l-0.7-0.1l-7.2,18.7l0.6,0.4
	c1.6,1,2.2,3.1,1.5,4.9c-0.4,1-1.2,1.8-2.1,2.3c-1,0.4-2.1,0.5-3.1,0.1c-0.8-0.3-1.5-0.9-2-1.7c0,0,0.8-0.7,1-0.9
	c0.4-0.4,0.3-0.4,0.8-1.1c0,0-2.5,1.2-3.3,1.5c-0.8,0.3-1.7,0.2-2.5-0.1c-2.1-0.8-3.1-3.2-2.3-5.3c0.4-1,1.2-1.8,2.1-2.3
	c0.7-0.3,1.5-0.4,2.3-0.3l0.7,0.1l7.2-18.7l-0.6-0.4c-1.6-1-2.2-3.1-1.5-4.9c0.4-1,1.2-1.8,2.1-2.3c1-0.4,2.1-0.5,3.1-0.1
	c0.9,0.3,1.6,1,2.1,1.8c0,0-0.4,0.2-1,0.8c-0.3,0.4-0.7,0.9-0.7,0.9l2.1-0.9l0,0l0.7-0.3c0.9-0.3,2-0.3,2.9,0
	C40.7,13.3,41.7,15.6,40.9,17.7z"/>
</svg>
