<?xml version="1.0" encoding="utf-8"?>
<!-- Generator: Adobe Illustrator 17.1.0, SVG Export Plug-In . SVG Version: 6.00 Build 0)  -->
<!DOCTYPE svg PUBLIC "-//W3C//DTD SVG 1.1//EN" "http://www.w3.org/Graphics/SVG/1.1/DTD/svg11.dtd">
<svg version="1.1" id="Слой_1" xmlns="http://www.w3.org/2000/svg" xmlns:xlink="http://www.w3.org/1999/xlink" x="0px" y="0px"
	 viewBox="0 0 31.2 19.8" enable-background="new 0 0 31.2 19.8" xml:space="preserve">
<g id="pil">
	<path fill="#00A551" d="M5,18.1c0.1,0,0.2,0,0.3,0c-3.4-1.5-3-5.4-1.4-8.3c0.8-1.4,1.9-2.4,2.9-3c-3.7,0.9-7.7,6-5.4,9.6
		C2.1,17.5,3.3,18.1,5,18.1"/>
	<path fill="#00A551" d="M14.3,18.1c0.1,0,0.3,0,0.4,0c-4.1-1.9-2.9-6.9-0.4-10.6c1.2-1.8,2.8-3.1,4.2-3.8
		C13.7,4.8,7.7,11.3,10,15.9C10.7,17.3,12.1,18.1,14.3,18.1"/>
	<path fill="#00A551" d="M25,18.3c0.2,0,0.4,0,0.5,0c-4.9-2.2-3.3-8.1-0.2-12.4c1.5-2.1,3.5-3.6,5.1-4.5c-5.9,1.3-13.2,9-10.6,14.3
		C20.7,17.4,22.5,18.3,25,18.3"/>
</g>
</svg>
