<?xml version="1.0" encoding="utf-8"?>
<!-- Generator: Adobe Illustrator 17.1.0, SVG Export Plug-In . SVG Version: 6.00 Build 0)  -->
<!DOCTYPE svg PUBLIC "-//W3C//DTD SVG 1.1//EN" "http://www.w3.org/Graphics/SVG/1.1/DTD/svg11.dtd">
<svg version="1.1" id="Слой_1" xmlns="http://www.w3.org/2000/svg" xmlns:xlink="http://www.w3.org/1999/xlink" x="0px" y="0px"
	 viewBox="0 0 85 127.6" enable-background="new 0 0 85 127.6" xml:space="preserve">
<g id="speed">
	<path fill="#F48120" d="M33.7,7.2h-28c-0.8,0-1.5-0.7-1.5-1.5s0.7-1.5,1.5-1.5h28c0.8,0,1.5,0.7,1.5,1.5S34.5,7.2,33.7,7.2z"/>
	<path fill="#F48120" d="M50.4,27.2H28.2c-0.8,0-1.5-0.7-1.5-1.5s0.7-1.5,1.5-1.5h22.2c0.8,0,1.5,0.7,1.5,1.5S51.2,27.2,50.4,27.2z"
		/>
	<path fill="#F48120" d="M21.7,27.2h-9.2c-0.8,0-1.5-0.7-1.5-1.5s0.7-1.5,1.5-1.5h9.2c0.8,0,1.5,0.7,1.5,1.5S22.5,27.2,21.7,27.2z"
		/>
	<path fill="#F48120" d="M78.3,86h-28c-0.8,0-1.5-0.7-1.5-1.5s0.7-1.5,1.5-1.5h28c0.8,0,1.5,0.7,1.5,1.5S79.1,86,78.3,86z"/>
	<path fill="#F48120" d="M42.9,86h-5.7c-0.8,0-1.5-0.7-1.5-1.5s0.7-1.5,1.5-1.5h5.7c0.8,0,1.5,0.7,1.5,1.5S43.8,86,42.9,86z"/>
	<path fill="#F48120" d="M39.3,122.3h-28c-0.8,0-1.5-0.7-1.5-1.5s0.7-1.5,1.5-1.5h28c0.8,0,1.5,0.7,1.5,1.5S40.1,122.3,39.3,122.3z"
		/>
</g>
</svg>
