<?xml version="1.0" encoding="utf-8"?>
<!-- Generator: Adobe Illustrator 17.1.0, SVG Export Plug-In . SVG Version: 6.00 Build 0)  -->
<!DOCTYPE svg PUBLIC "-//W3C//DTD SVG 1.1//EN" "http://www.w3.org/Graphics/SVG/1.1/DTD/svg11.dtd">
<svg version="1.1" id="Слой_1" xmlns="http://www.w3.org/2000/svg" xmlns:xlink="http://www.w3.org/1999/xlink" x="0px" y="0px"
	 viewBox="0 0 25.5 25.5" enable-background="new 0 0 25.5 25.5" xml:space="preserve">
<path id="weel" fill="#F48120" d="M12.1,24.4C12.1,24.4,12.1,24.4,12.1,24.4c-2.9,0-5.5-1.1-7.5-3c-4.3-4.3-4-11.6,0.7-16.3
	c2.4-2.4,5.6-3.7,8.8-3.7c2.9,0,5.5,1.1,7.5,3c4.3,4.3,4,11.6-0.7,16.3C18.5,23,15.3,24.4,12.1,24.4z M14.1,9.4
	c-1.1,0-2.2,0.5-3.1,1.4c-1.5,1.5-1.9,3.8-0.7,4.9c0.6,0.6,1.3,0.7,1.8,0.7l0,0c1.1,0,2.2-0.5,3.1-1.4c1.5-1.5,1.9-3.8,0.7-4.9
	C15.3,9.5,14.6,9.4,14.1,9.4z"/>
</svg>
