<?xml version="1.0" encoding="utf-8"?>
<!-- Generator: Adobe Illustrator 17.1.0, SVG Export Plug-In . SVG Version: 6.00 Build 0)  -->
<!DOCTYPE svg PUBLIC "-//W3C//DTD SVG 1.1//EN" "http://www.w3.org/Graphics/SVG/1.1/DTD/svg11.dtd">
<svg version="1.1" id="Слой_1" xmlns="http://www.w3.org/2000/svg" xmlns:xlink="http://www.w3.org/1999/xlink" x="0px" y="0px"
	 viewBox="0 0 59.5 25.5" enable-background="new 0 0 59.5 25.5" xml:space="preserve">
<g id="weels">
	<path fill="#F48120" d="M11.6,24.3C11.6,24.3,11.6,24.3,11.6,24.3c-2.9,0-5.5-1.1-7.5-3C-0.2,17,0.1,9.7,4.8,5
		c2.4-2.4,5.6-3.7,8.8-3.7c2.9,0,5.5,1.1,7.5,3c4.3,4.3,4,11.6-0.7,16.3C18,22.9,14.8,24.3,11.6,24.3z M13.6,9.2
		c-1.1,0-2.2,0.5-3.1,1.4c-1.5,1.5-1.9,3.8-0.7,4.9c0.6,0.6,1.3,0.7,1.8,0.7l0,0c1.1,0,2.2-0.5,3.1-1.4c1.5-1.5,1.9-3.8,0.7-4.9
		C14.8,9.4,14.1,9.2,13.6,9.2z"/>
	<path fill="#F48120" d="M46,24.3L46,24.3c-2.9,0-5.5-1.1-7.5-3C34.2,17,34.5,9.7,39.2,5c2.4-2.4,5.6-3.7,8.8-3.7
		c2.9,0,5.5,1.1,7.5,3c4.3,4.3,4,11.6-0.7,16.3C52.4,22.9,49.2,24.3,46,24.3z M48,9.2c-1.1,0-2.2,0.5-3.1,1.4
		c-1.5,1.5-1.9,3.8-0.7,4.9c0.6,0.6,1.3,0.7,1.8,0.7c1.1,0,2.2-0.5,3.1-1.4c1.5-1.5,1.9-3.8,0.7-4.9C49.2,9.4,48.5,9.2,48,9.2z"/>
</g>
</svg>
