<?xml version="1.0" encoding="utf-8"?>
<!-- Generator: Adobe Illustrator 17.1.0, SVG Export Plug-In . SVG Version: 6.00 Build 0)  -->
<!DOCTYPE svg PUBLIC "-//W3C//DTD SVG 1.1//EN" "http://www.w3.org/Graphics/SVG/1.1/DTD/svg11.dtd">
<svg version="1.1" id="Слой_1" xmlns="http://www.w3.org/2000/svg" xmlns:xlink="http://www.w3.org/1999/xlink" x="0px" y="0px"
	 viewBox="0 0 595.3 841.9" enable-background="new 0 0 595.3 841.9" xml:space="preserve">
<path id="icon-onemoretime" d="M469.7,19.4c0.5,3.2-1.7,6.2-4.8,6.7c-3.1,0.5-6.1-1.7-6.6-4.9c-0.2-1.4,0.1-2.7,0.7-3.8l2.3,2.4
	l0.1-5.9l-7.1,0.1l2.7,1.6c-1.1,1.7-1.6,3.8-1.3,6c0.7,4.7,5,7.9,9.5,7.2c4.6-0.7,7.7-5.1,7-9.8c-0.6-3.7-4.2-7-7.8-7.1v3
	C467.3,14.6,469.3,17.1,469.7,19.4z"/>
<path id="modal-success" d="M352.2,220c-11.2,0-21.8-4.4-29.7-12.3c-7.9-7.9-12.3-18.5-12.3-29.7s4.4-21.8,12.3-29.7
	S341,136,352.2,136s21.8,4.4,29.7,12.3c7.9,7.9,12.3,18.5,12.3,29.7s-4.4,21.8-12.3,29.7C374,215.6,363.5,220,352.2,220z
	 M352.2,140.7c-10,0-19.3,3.9-26.4,10.9c-7,7-10.9,16.4-10.9,26.4s3.9,19.3,10.9,26.4c7,7,16.4,10.9,26.4,10.9s19.3-3.9,26.4-10.9
	c7-7,10.9-16.4,10.9-26.4s-3.9-19.3-10.9-26.4C371.6,144.6,362.2,140.7,352.2,140.7z M352.2,200c3.4,0,6.1-2.7,6.1-6.1
	c0-3.4-2.7-6.1-6.1-6.1s-6.1,2.7-6.1,6.1C346.1,197.3,348.8,200,352.2,200z M358.7,157.3h-13l1,26.5h11L358.7,157.3z"/>
<polygon id="icon-done" points="499.3,49.4 495.7,45.9 486.4,55 482.8,51.5 479.3,54.9 486.4,61.9 486.4,61.9 486.4,61.9 "/>
<polygon id="icon-check" points="433.7,12.3 432.4,10.7 417.8,25.7 412.4,20.1 410.7,21.7 417.6,28.7 417.6,28.7 "/>
<polygon id="dropdown-active" points="468.8,49.7 468.1,48.9 461.3,57.2 458.6,54.3 457.8,55.3 461.3,58.9 461.3,58.9 "/>
<g id="g-modal-error">
	<g>
		<g>
			<g>
				<g>
					<rect x="425.6" y="172.1" transform="matrix(-0.7071 0.7071 -0.7071 -0.7071 899.9008 -12.7919)" width="53.9" height="15.8"/>
				</g>
			</g>
		</g>
		<g>
			<g>
				<g>
					
						<rect x="425.6" y="172.1" transform="matrix(-0.7071 0.7071 -0.7071 -0.7071 899.9008 -12.7919)" fill="none" width="53.9" height="15.8"/>
				</g>
			</g>
		</g>
	</g>
	<g>
		<g>
			<path d="M452.7,137.9c-23.2,0-42,18.8-42,42s18.8,42,42,42s42-18.8,42-42S475.9,137.9,452.7,137.9z M452.7,206.3
				c-14.5,0-26.3-11.8-26.3-26.3s11.8-26.3,26.3-26.3S479,165.5,479,180S467.3,206.3,452.7,206.3z"/>
		</g>
		<g>
			<path fill="none" d="M452.7,137.9c-23.2,0-42,18.8-42,42s18.8,42,42,42s42-18.8,42-42S475.9,137.9,452.7,137.9z M452.7,206.3
				c-14.5,0-26.3-11.8-26.3-26.3s11.8-26.3,26.3-26.3S479,165.5,479,180S467.3,206.3,452.7,206.3z"/>
		</g>
	</g>
</g>
<g id="g-icon-cancel">
	<g>
		<path d="M489.3,11.9c-4.7,0-8.5,3.8-8.5,8.5s3.8,8.5,8.5,8.5s8.5-3.8,8.5-8.5S494,11.9,489.3,11.9z M489.3,14
			c1.1,0,2.2,0.3,3.1,0.9l-8.7,8.7c-0.5-0.9-0.9-2-0.9-3.1C482.9,16.9,485.8,14,489.3,14z M489.3,26.8c-1.3,0-2.5-0.4-3.5-1.1
			l8.8-8.8c0.7,1,1.1,2.2,1.1,3.5C495.6,23.9,492.8,26.8,489.3,26.8z"/>
	</g>
</g>
<polygon id="arrow-prev" points="571.1,210.9 541.7,180.7 541.7,180.7 540.4,179.4 540.4,179.4 540.4,179.3 541.7,178 541.7,178 
	571.2,148.9 572.4,150.3 543,179.4 572.4,209.6 "/>
<polygon id="arrow-next" points="503.5,148.9 532.9,179.2 532.9,179.2 534.2,180.5 534.2,180.5 534.2,180.5 532.9,181.9 
	532.9,181.8 503.5,210.9 502.2,209.6 531.6,180.5 502.2,150.3 "/>
<polygon id="arrow-prev-small" points="554.4,97.1 548.1,90.9 548.1,90.9 547.3,90 547.3,90 547.3,90 548.2,89.1 548.2,89.1 
	554.4,83.1 555.3,84 549.1,90 555.3,96.2 "/>
<polygon id="icon-slidedown" points="383,54.5 376.8,60.7 376.8,60.7 375.9,61.6 375.9,61.6 375.9,61.6 375,60.7 375,60.7 369,54.5 
	369.9,53.6 375.9,59.8 382.1,53.6 "/>
<polygon id="accordeon-group" points="426.2,54.5 420.8,60.8 420.9,60.8 420.1,61.6 420.1,61.6 420.1,61.6 419.3,60.7 419.3,60.7 
	414.2,54.5 415,53.6 420.1,59.8 425.4,53.6 "/>
<polygon id="arrow-next-small" points="568.9,83.1 575.1,89.3 575.1,89.3 576,90.2 576,90.2 576,90.2 575.1,91.1 575.1,91.1 
	568.8,97.1 568,96.1 574.2,90.2 568,84 "/>
<path id="icon-menu" d="M403,16.4h-13v-2h13V16.4z M403,19.4h-13v2h13V19.4z M403,24.4h-13v2h13V24.4z"/>
<polygon id="icon-download" points="446.3,24 441.8,28.9 437.3,24 440.3,24 440.3,11.9 443.4,11.9 443.4,24 "/>
<polygon id="icon-cross" points="404.1,62.2 398,56.2 392,62.2 390,60.2 396.1,54.2 390,48.2 392,46.2 398,52.2 404.1,46.2 
	406,48.2 400,54.2 406,60.2 "/>
<polygon id="icon-drop" points="448.6,61.4 441.8,54.6 435,61.4 434.3,60.8 441.1,53.9 434.3,47.1 435,46.4 441.8,53.3 448.6,46.4 
	449.3,47.1 442.5,53.9 449.3,60.8 "/>
<g id="g-icon-like">
	<g>
		<path d="M521,82.6c-0.3,0-0.6,0-0.8,0c-2,0-3,0.8-4.1,1.9c-1.1-1.2-2.1-1.9-4.1-1.9c-0.3,0-0.5,0-0.8,0c-1.8,0.2-3.8,1.6-4.1,4.3
			v0.9c0.2,2.6,2.5,5.8,9,9.8c6.5-4,8.8-7.2,9-9.8v-0.9C524.8,84.2,522.8,82.8,521,82.6z M523.1,87.7c-0.2,2.3-2.6,4.9-7,7.7
			c-4.4-2.9-6.8-5.5-7-7.7v-0.8c0.2-1.8,1.5-2.6,2.3-2.6c0.2,0,0.4,0,0.6,0c1.2,0,1.7,0.3,2.6,1.3l1.5,1.6l1.5-1.6
			c1-1,1.5-1.3,2.6-1.3c0.2,0,0.4,0,0.6,0c0.8,0.1,2.1,0.8,2.3,2.6V87.7z"/>
	</g>
</g>
<g id="g-icon-like-active">
	<g>
		<path d="M494,82.6c-0.3,0-0.6,0-0.8,0c-2,0-3,0.8-4.1,1.9c-1.1-1.2-2.1-1.9-4.1-1.9c-0.3,0-0.5,0-0.8,0c-1.8,0.2-3.8,1.6-4.1,4.3
			v0.9c0.2,2.6,2.5,5.8,9,9.8c6.5-4,8.8-7.2,9-9.8v-0.9C497.8,84.2,495.8,82.8,494,82.6z"/>
	</g>
</g>
<g id="g-icon-favorites">
	<g>
		<path d="M523.7,11.9c-0.3,0-0.6,0-0.9,0c-2.3,0-3.3,0.9-4.6,2.2c-1.2-1.3-2.3-2.2-4.6-2.2c-0.3,0-0.6,0-0.9,0
			c-2,0.2-4.2,1.8-4.5,4.8v1c0.3,2.9,2.7,6.6,10,11.2c7.3-4.5,9.7-8.2,10-11.2v-1C528,13.7,525.7,12.1,523.7,11.9z"/>
	</g>
</g>
<g id="g-icon-mail">
	<g>
		<rect x="291.6" y="50.1" fill="#FFFFFF" width="21" height="15"/>
		<polygon points="302.1,60 305.3,57.8 312.1,64.7 292.1,64.7 298.9,57.8 		"/>
		<polygon points="297.5,56.8 291.7,62.7 291.7,52.7 		"/>
		<polygon points="312.4,62.9 306.6,56.9 312.4,52.9 		"/>
		<path d="M302.1,57.7l-10-7.1h20L302.1,57.7z M312.5,50.1h-20.8v0.3h20.8V50.1z"/>
	</g>
</g>
<g id="g-icon-addmail">
	<g>
		<rect x="291.9" y="19.2" fill="#FFFFFF" width="20.2" height="14.1"/>
		<polygon points="302,28.6 305.1,26.4 311.6,32.9 292.4,32.9 298.9,26.4 		"/>
		<polygon points="297.6,25.5 292.1,31 292.1,21.6 		"/>
		<polygon points="311.9,31.2 306.3,25.7 311.9,21.8 		"/>
		<path d="M302,26.3l-9.6-6.7h19.2L302,26.3z M312.1,19.2h-20v0.3h20V19.2z"/>
	</g>
	<g>
		<polygon fill="#FFFFFF" points="312.6,25.6 309.7,25.6 309.7,21.3 305.4,21.3 305.4,18.5 309.7,18.5 309.7,14.3 312.6,14.3 
			312.6,18.5 316.9,18.5 316.9,21.3 312.6,21.3 		"/>
		<polygon points="312.1,24.6 310.2,24.6 310.2,20.9 306.3,20.9 306.3,19 310.2,19 310.2,15.2 312.1,15.2 312.1,19 315.9,19 
			315.9,20.9 312.1,20.9 		"/>
	</g>
</g>
<path id="icon-magazine" d="M368,19.6h-7v-7h7V19.6z M368,21.6h-7v7h7V21.6z M377,14.6h-7v2h7V14.6z M377,23.6h-7v2h7V23.6z"/>
<path id="icon-cards" d="M433.3,86.1h-4v-4h4V86.1z M445.3,82.2h-4v4h4V82.2z M445.3,94.1h-4v4h4V94.1z M433.3,94.1h-4v4h4V94.1z
	 M433.3,88.2h-4v4h4V88.2z M445.3,88.2h-4v4h4V88.2z M439.3,94.1h-4v4h4V94.1z M439.3,82.2h-4v4h4V82.2z M439.3,88.2h-4v4h4V88.2z"
	/>
<path id="stars" d="M302.7,81.2l2.6,5.3l5.8,0.8l-4.2,4.1l1,5.8l-5.2-2.7l-5.2,2.7l1-5.8l-4.2-4.1l5.8-0.8L302.7,81.2z M321,86.4
	l-5.8,0.8l4.2,4.1l-1,5.8l5.2-2.7l5.2,2.7l-1-5.8l4.2-4.1l-5.8-0.8l-2.6-5.3L321,86.4z M341.7,86.4l-5.8,0.8l4.2,4.1l-1,5.8l5.2-2.7
	l5.2,2.7l-1-5.8l4.2-4.1l-5.8-0.8l-2.6-5.3L341.7,86.4z M362.5,86.4l-5.8,0.8l4.2,4.1l-1,5.8l5.2-2.7l5.2,2.7l-1-5.8l4.2-4.1
	l-5.8-0.8l-2.6-5.3L362.5,86.4z M383.3,86.4l-5.8,0.8l4.2,4.1l-1,5.8l5.2-2.7l5.2,2.7l-1-5.8l4.2-4.1l-5.8-0.8l-2.6-5.3L383.3,86.4z
	"/>
<polygon id="star" points="252.5,81.9 246.7,82.7 250.9,86.8 249.9,92.6 255.1,89.9 260.3,92.6 259.3,86.8 263.5,82.7 257.7,81.9 
	255.1,76.7 "/>
<path id="icon-titles" d="M459.3,86.1h-4v-4h4V86.1z M459.3,88.1h-4v4h4V88.1z M459.3,94.1h-4v4h4V94.1z M471.3,83.1h-10.1v2h10.1
	V83.1z M471.3,89.1h-10.1v2h10.1V89.1z M471.3,95.1h-10.1v2h10.1V95.1z"/>
<path id="icon-search" d="M347.6,42.6c4.4,0,8.4,2.8,9.9,7.3c1.9,5.6-1,11.8-6.5,13.8c-1.1,0.4-2.3,0.6-3.4,0.6
	c-4.4,0-8.4-2.8-9.9-7.3c-1.9-5.6,1-11.8,6.5-13.8C345.3,42.8,346.5,42.6,347.6,42.6 M347.6,45.6c-0.8,0-1.7,0.1-2.5,0.4l0,0
	c-1.9,0.7-3.5,2.1-4.4,4s-1,4-0.3,6c1.1,3.2,4,5.3,7.2,5.3c0.8,0,1.7-0.1,2.5-0.4c1.9-0.7,3.5-2.1,4.4-4c0.9-1.9,1-4,0.3-6
	C353.8,47.7,350.9,45.6,347.6,45.6L347.6,45.6z M361.1,62.5l-2.5-0.2l-2.5-2.5c-0.6,0.9-1,1.3-1.7,1.9c-0.1,0.1,2.3,2.5,2.3,2.5
	l0.3,2.5l5.9,5.9l4.2-4.2L361.1,62.5z"/>
<path id="icon-checking" d="M275.1,81.1c2.3,0,4.5,1.5,5.3,3.9c1,3-0.5,6.3-3.5,7.3c-0.6,0.2-1.2,0.3-1.8,0.3
	c-2.3,0-4.5-1.5-5.3-3.9c-1-3,0.5-6.3,3.5-7.3C273.9,81.2,274.5,81.1,275.1,81.1 M275.1,82.6c-0.5,0-0.9,0.1-1.3,0.2l0,0
	c-1,0.4-1.9,1.1-2.3,2.1c-0.5,1-0.5,2.2-0.2,3.2c0.6,1.7,2.1,2.8,3.9,2.8c0.5,0,0.9-0.1,1.3-0.2c1-0.4,1.9-1.1,2.3-2.1
	c0.5-1,0.5-2.2,0.2-3.2C278.4,83.8,276.8,82.6,275.1,82.6L275.1,82.6z M282.3,91.6l-1.4-0.1l-1.3-1.3c-0.3,0.5-0.6,0.7-0.9,1
	l1.2,1.3l0.2,1.3l3.2,3.2l2.2-2.2L282.3,91.6z"/>
<path id="icon-reload" d="M519.2,60.9v4c-4.9,0.1-9.4-2.9-11.1-7.5c-1.2-3.3-0.9-6.9,0.9-9.9l-2.7-2.5h9l-0.1,9l-3.5-3.4
	c-0.8,1.9-1,3.7-0.3,5.7C512.6,59.5,515.7,61,519.2,60.9z M525.1,51.6c0.7,2,0.5,3.7-0.3,5.7l-3.5-3.4l-0.1,9h9l-2.7-2.5
	c1.8-3,2.1-6.7,0.9-9.9c-1.7-4.6-6.2-7.6-11.1-7.5v4C520.7,46.7,523.8,48.2,525.1,51.6z"/>
<linearGradient id="arrow-backwards_1_" gradientUnits="userSpaceOnUse" x1="906.182" y1="-1239.4528" x2="906.182" y2="-1320.087" gradientTransform="matrix(-0.2976 0 0 0.2976 531.716 405.5332)">
	<stop  offset="0" style="stop-color:#333333"/>
	<stop  offset="1" style="stop-color:#000000"/>
</linearGradient>
<polygon id="arrow-backwards" fill="url(#arrow-backwards_1_)" points="261.5,36.6 264.7,33.5 258,26.8 274.5,26.8 274.5,22.4 
	258,22.4 264.7,15.7 261.5,12.6 249.5,24.6 "/>
<linearGradient id="btn-backarrow_1_" gradientUnits="userSpaceOnUse" x1="741.9483" y1="-1309.7131" x2="741.9483" y2="-1346.6705" gradientTransform="matrix(-0.2976 0 0 0.2976 477.3335 452.8433)">
	<stop  offset="0" style="stop-color:#333333"/>
	<stop  offset="1" style="stop-color:#000000"/>
</linearGradient>
<polygon id="btn-backarrow" fill="url(#btn-backarrow_1_)" points="249.5,57.6 250.6,58.6 250.6,58.6 255,63.1 256.1,62 252.1,58 
	263.5,58.1 263.5,57.1 252.1,57.1 256.1,53.1 255,52.1 250.6,56.5 250.6,56.5 "/>
<path id="icon-trash" d="M285,55.1h-15v-2h15V55.1z M284,50.1h-13v2h13V50.1z M279,49.1h-3v1h3V49.1z M283,55.1h-11v11h11V55.1z
	 M274.9,64.1h-1v-8h1V64.1z M278,64.1h-1v-8h1V64.1z M281,64.1h-1v-8h1V64.1z"/>
<polygon id="divider" points="197,93.1 196.6,92.8 190,86.4 183,93.1 182.6,92.8 176,86.4 169,93.1 168.5,92.8 161.9,86.4 
	155.2,92.8 154.5,92.2 162,85.1 168.9,91.9 176,85.1 183,91.9 190,85.1 197,91.9 204.1,85.1 211.1,91.9 218.1,85.1 225.1,91.9 
	232.2,85.1 239.5,92.2 238.8,92.8 232.2,86.4 225.1,93.1 224.7,92.8 218.1,86.4 211.1,93.1 210.7,92.8 204.1,86.4 "/>
<path id="icon-cart1" d="M583.6,16.7h-2.9l-6.3-6.4c0-0.1,0-0.2,0-0.3c0-1.2-1-2.1-2.1-2.1c-1.2,0-2.1,1-2.1,2.1c0,0.1,0,0.2,0,0.3
	l-6.2,6.3h-2.9c-0.4,0-0.7,0.3-0.7,0.7v1c0,0.4,0.3,0.7,0.7,0.7h0.6l1.6,8.3c0,0.3,0.3,0.6,0.6,0.6h17c0.3,0,0.6-0.3,0.6-0.6
	l1.6-8.3h0.6c0.4,0,0.7-0.3,0.7-0.7v-1C584.4,17,584,16.7,583.6,16.7z M571.4,11.9c0.3,0.1,0.6,0.2,0.9,0.2c0.4,0,0.7-0.1,1-0.2
	l4.7,4.7h-11.3L571.4,11.9z M566.6,26.8h-0.4c-0.4,0-0.8-0.2-0.9-0.6l-1.1-5.2c-0.1-0.4,0.2-0.8,0.7-0.8h0.5c0.5,0,1,0.3,1,0.8
	l0.8,5.2C567.3,26.5,567,26.8,566.6,26.8z M570.6,26.8h-0.4c-0.4,0-0.8-0.2-0.8-0.6l-0.5-5.2c0-0.4,0.3-0.8,0.8-0.8h0.5
	c0.5,0,0.9,0.3,0.9,0.8l0.2,5.2C571.4,26.5,571.1,26.8,570.6,26.8z M575.5,26.2c0,0.3-0.4,0.6-0.8,0.6h-0.4c-0.4,0-0.8-0.2-0.8-0.6
	l0.1-5.2c0-0.4,0.4-0.8,0.9-0.8h0.5c0.5,0,0.9,0.3,0.9,0.8L575.5,26.2z M579.6,26.2c-0.1,0.3-0.5,0.6-0.9,0.6h-0.4
	c-0.4,0-0.7-0.2-0.7-0.6l0.7-5.2c0.1-0.4,0.5-0.8,1-0.8h0.5c0.5,0,0.8,0.3,0.8,0.8L579.6,26.2z"/>
<path id="icon-cart-small1" d="M581.1,52.8h-2.3l-5-5c0-0.1,0-0.1,0-0.2c0-0.9-0.8-1.7-1.7-1.7c-0.9,0-1.7,0.8-1.7,1.7
	c0,0.1,0,0.2,0,0.3l-4.9,5h-2.3c-0.3,0-0.6,0.3-0.6,0.6v0.8c0,0.3,0.3,0.6,0.6,0.6h0.4l1.2,6.6c0,0.3,0.2,0.5,0.5,0.5h13.5
	c0.3,0,0.5-0.2,0.5-0.5l1.2-6.6h0.4c0.3,0,0.6-0.3,0.6-0.6v-0.8C581.7,53,581.4,52.8,581.1,52.8z M571.4,49.1
	c0.2,0.1,0.5,0.2,0.7,0.2c0.3,0,0.5-0.1,0.8-0.2l3.7,3.7h-8.9L571.4,49.1z M567.6,60.7h-0.3c-0.3,0-0.7-0.2-0.7-0.4l-0.9-4
	c-0.1-0.3,0.2-0.6,0.6-0.6h0.4c0.4,0,0.8,0.3,0.8,0.6l0.7,4C568.2,60.5,568,60.7,567.6,60.7z M570.8,60.7h-0.3
	c-0.3,0-0.6-0.2-0.7-0.4l-0.4-4c0-0.3,0.3-0.6,0.7-0.6h0.4c0.4,0,0.7,0.3,0.8,0.6l0.2,4C571.4,60.5,571.2,60.7,570.8,60.7z
	 M574.7,60.2c0,0.2-0.3,0.4-0.6,0.4h-0.3c-0.3,0-0.6-0.2-0.6-0.4l0.1-4c0-0.3,0.3-0.6,0.7-0.6h0.4c0.4,0,0.7,0.3,0.7,0.6L574.7,60.2
	z M578,60.2c0,0.2-0.4,0.4-0.7,0.4H577c-0.3,0-0.6-0.2-0.6-0.4l0.5-4c0-0.3,0.4-0.6,0.8-0.6h0.4c0.4,0,0.7,0.3,0.6,0.6L578,60.2z"/>
<path id="icon-cart" d="M558.7,14.9h-3.9l-6-6v-1h-4c0,0-0.1,1,0,1.1l-6,5.9h-3.9c0,0,0,2,0,2.4l0,0c0,0.4,0.2,0.6,0.6,0.6h0.4
	l1.1,9.7c0,0.3,1.1,0.3,1.5,0.3h16.9c0.3,0,1.6,0.1,1.6-0.3l1-9.7h0.6c0.4,0,0.4-0.1,0.4-0.5v-1.3C558.7,15.6,558.7,14.9,558.7,14.9
	z M545.8,10.8c0-0.9,0-0.9,0-0.9h2c0,0,0,0.6,0,1l3.9,4h-9.8L545.8,10.8z M555,24.8c-0.2,1-0.2,1-0.3,1h-1.8c-0.4,0-0.1-1.7,0-2
	l0.8-4.5c0.1-0.3,0.2-0.5,0.5-0.5h0.7c1.1,0,1.3-0.1,1.1,0.8L555,24.8z M537.7,19.8c-0.2-1,0-0.8,1.1-0.8h0.7c0.3,0,0.4,0.2,0.5,0.5
	l0.8,4.5c0,0.3,0.4,2,0,2h-1.8c-0.1,0-0.1-0.1-0.3-1L537.7,19.8z M547.8,25.9h-2v-7h2V25.9z M544,25.9h-2l-0.5-7h2L544,25.9z
	 M549.9,18.9h2l-0.5,7h-2L549.9,18.9z"/>
<path id="icon-cart-small_1_" d="M555.3,51.5h-3.1l-4.8-4.8v-0.8h-3.1c0,0,0,0.8,0,0.9l-4.8,4.8h-3.1c0,0,0,1.6,0,1.9l0,0
	c0,0.3,0.1,0.5,0.5,0.5h0.3l0.8,7.7c0,0.3,0.9,0.2,1.2,0.2h13.4c0.3,0,1.3,0.1,1.3-0.2l0.8-7.7h0.4c0.3,0,0.3-0.1,0.3-0.4v-1.1
	C555.3,52,555.3,51.5,555.3,51.5z M545.1,48.2c0-0.7,0-0.7,0-0.7h1.6c0,0,0,0.5,0,0.8l3.1,3.2H542L545.1,48.2z M552.3,59.3
	c-0.2,0.8-0.2,0.8-0.3,0.8h-1.5c-0.3,0-0.1-1.4,0-1.6l0.6-3.6c0.1-0.2,0.1-0.4,0.4-0.4h0.5c0.9,0,1-0.1,0.9,0.7L552.3,59.3z
	 M538.5,55.2c-0.1-0.8,0-0.7,0.9-0.7h0.5c0.3,0,0.3,0.1,0.4,0.4l0.6,3.6c0,0.2,0.3,1.6,0,1.6h-1.5c-0.1,0-0.1-0.1-0.3-0.8
	L538.5,55.2z M546.6,60.1H545v-5.6h1.6V60.1z M543.6,60.1H542l-0.4-5.6h1.6L543.6,60.1z M548.3,54.6h1.6l-0.4,5.6h-1.6L548.3,54.6z"
	/>
<path id="benefit-simple" d="M225.2,204.6c-1.3,0-3.4,0-3.4-2l-3-38c0-1.7,1.9-3.1,3.3-3.1h25.6c1.6,0,2.7,1.7,2.7,3.2v1.3
	c3.4-0.5,5.2-4.2,7.7-9.4l0.3-0.7c0.8-1.5,1.8-2.7,2.6-3.8c1.2-1.4,2.3-2.6,2.4-4c0.3-4.1,0.5-8.1,0.5-11.2c0-1.9,2.1-3.3,4.6-3.3
	c0.3,0,0.6,0,0.9,0.1h0.1c10.1,2.8,9.6,18.5,9.1,21.5c-0.5,2.6-0.6,3.7-0.7,4.2h3.7h16.1c4.6,0,7.6,2.5,7.6,6.7c0,4-1.4,5.4-3.3,6
	c0.8,1.2,0.8,2.7,0.8,4.4c-0.1,2.5-1.1,4.2-2.8,5.1c0.1,0.1,0.3,0.3,0.4,0.5c0.7,1,0.9,2.5,0.6,4.4c-0.5,2.8-2.4,3.5-4,3.7
	c0.5,0.8,0.9,2.1,0.8,4.2c-0.1,4.2-2.7,6.4-8,6.4l0,0l-21.3-0.2l-11.7,0.2c-0.5,0-2.1-0.1-4-2.1c-0.1-0.1-0.3-0.2-1.1-0.2
	c-0.2,0-0.3,0-0.5,0c-0.3,0-0.5,0-0.7,0v3.2c0,1.7-1.1,2.8-2.6,2.8L225.2,204.6z M223.7,202.6c0.3,0.1,1.2,0.1,1.5,0.1h1.1h21.6
	c0.5,0,0.7-0.6,0.7-0.9v-37c0-0.6-0.5-1.3-0.8-1.3h-25.6c-0.6,0-1.4,0.8-1.4,1.2L223.7,202.6z M251.6,196.6c0.8,0,1.8,0.1,2.5,0.8
	c1.5,1.5,2.5,1.5,2.5,1.5l11.7-0.2l21.4,0.2c4.2,0,6-1.4,6.1-4.4c0.1-3.2-0.7-3.4-1.4-3.5c-0.4-0.1-0.9-0.5-1-0.9l0.1-1.6l0.7-0.1
	c0.6-0.1,0.7-0.1,1.3-0.1c2.2-0.2,3.3-0.2,3.6-2.1c0.2-1.4,0.2-2.5-0.2-2.9c-0.3-0.5-0.9-0.6-1.8-0.7c-0.6-0.1-1.4-0.3-1.9-0.6
	l0.1-1.7h0.8c0.3,0,0.6,0.1,0.9,0.1c1.7,0,3.7-0.7,3.8-3.8c0-1.7,0-2.8-0.6-3.4c-0.3-0.3-1.2-0.6-2-0.6l0.1-1.8
	c3.7-0.3,5.1-0.4,5.1-4.4c0-4.2-3.9-4.7-5.6-4.7h-21.2l-0.3-0.6c-0.5-1.1-0.4-1.6,0.4-6c0.5-2.5,0.9-16.8-7.6-19.2
	c-1.8-0.2-3.1,0.8-3.1,1.4c0,3-0.2,7.2-0.5,11.3c-0.1,2.1-1.4,3.5-2.7,5.1c-0.9,1.1-1.8,2.2-2.5,3.4l-0.3,0.6
	c-2.6,5.3-4.7,9.6-8.8,10.4v28.6C251.3,196.6,251.5,196.6,251.6,196.6z M241.5,198.3c-1.7,0-3-1.4-3-3c0-1.7,1.4-3,3-3
	c1.7,0,3,1.4,3,3C244.5,197.1,243.1,198.3,241.5,198.3z M241.5,194.3c-0.6,0-1.1,0.5-1.1,1.1c0,0.6,0.5,1.1,1.1,1.1
	c0.6,0,1.1-0.5,1.1-1.1C242.5,194.8,242,194.3,241.5,194.3z"/>
<path id="case-site" d="M174.6,223.3l-1.2,1H140l-0.8-1.2l-1.1-1.6c0.2-0.1,5.3-1.2,5-8.3l-35.8,0.1c-2.8,0-2.5-4.2-2.5-6.1V200
	l2.1,1.2l100,0.3l1.8-0.6v6.5c0,2.5,0.3,3.4-0.8,4.6c-0.4,0.4-1.4,1.1-1.9,1.1l-35.6,0.1c-0.8,6.2,4.7,8.5,4.9,8.6L174.6,223.3z
	 M141.3,222.4l31.1-0.2c-2.2-0.8-4.2-3.7-4-9.4l0.1-1.7h36.1c0,0,1.5-0.8,1.5-0.9c0.5-0.7,0.7-1.5,0.7-1.6V202h-99.9l-0.1,5.9
	c0,2.2,0.8,3.1,1.6,3.1l36.9,0.1v2.2C145.1,218.2,142.8,220.8,141.3,222.4z M206.5,202.1H105.9l-1-0.1v-62.7c0-2.2,2-3.7,4.7-3.7
	h95.4c3,0,3.7,2.1,3.7,3.8V201L206.5,202.1z M106.9,201h99.8v-61.2c0-1.3-0.4-2.3-1.7-2.3h-95.4c-1.1,0-2.7,0.5-2.7,1.8L106.9,201z
	 M110.3,197.1v-55.4h92.3l0.1,55.4H110.3z M112.9,195h87.7v-51.4h-87.7V195z"/>
<path id="icon-deleteall" d="M414.2,98.1c-4.4,0-8-3.6-8-8s3.6-8,8-8s8,3.6,8,8S418.6,98.1,414.2,98.1z M414.2,84.2
	c-3.3,0-5.9,2.6-5.9,5.9c0,3.3,2.6,5.9,5.9,5.9s5.9-2.6,5.9-5.9C420.1,86.9,417.5,84.2,414.2,84.2z M417.6,92.4l-5.7-5.7l-0.7,0.7
	l5.7,5.7L417.6,92.4z M417.6,87.5l-0.7-0.7l-5.7,5.7l0.7,0.7L417.6,87.5z"/>
<g id="g-mission">
	<g>
		<path d="M59.6,199.1v-0.5c0-2.4,3.2-5.5,6.5-5.6h0.1c3.4,0,6.6,3.1,6.6,5.6v0.5H60.2c0,0-0.1,0-0.2,0H59.6z M77.9,161.5h7l-7,5.5
			V161.5z M79.9,166.7l6.2-4.8v-13.4h10.2v18.1L79.9,166.7L79.9,166.7z M66.6,160.7v-20.5H85v20.5H66.6z"/>
		<path fill="#FFFFFF" d="M84.5,140.8v19.5H67.1v-19.5H84.5 M95.7,149v17.1h-9.2V149H95.7 M86.5,162v4h-5.2L86.5,162 M83.4,162l-5,4
			v-4H83.4 M66.1,193.5c3.1,0,6.1,3,6.1,5.1H72H60h-0.1l0,0C59.9,196.6,63,193.6,66.1,193.5L66.1,193.5 M85.5,139.8h-1H67.1h-1v1
			v19.5v1h1h10.3v0.9v4v2.1l1.3-1.1h2.7h4.3h1h9.2h1v-1v-17.1v-1h-1h-9.2h-1v1v12.1h-0.2v-0.9v-19.5L85.5,139.8L85.5,139.8z
			 M66.1,192.5L66.1,192.5c-3.6,0.1-7.1,3.5-7.1,6.1v1h1c0.1,0,0.1,0,0.2,0H72h0.2h1v-1C73.2,196,69.7,192.5,66.1,192.5L66.1,192.5z
			"/>
	</g>
	<g>
		<g>
			<path fill="#FFFFFF" d="M97.8,147.1h-2h-9.2v-6.4v-2.1H65.7v2.1l0,0v19.5v1.9v31.4h1.5V162h9v4v1.9h2.1h17.6H98L97.8,147.1
				L97.8,147.1z M67.1,160.2v-19.5h17.4v19.5h-6.2h-2.1H67.1z M83.3,162l-5,4v-4H83.3z M81.5,166.2l4.9-3.9l-0.1-0.1h0.2v-1.9v-11.2
				h9.2v17.1H81.5z"/>
		</g>
	</g>
</g>
<path id="benefit-open" d="M181,363.7c0-20.1,29.1-17.7,29-2.4c0,4.6,0,12.9-4.8,22.6c-8.9,17.7,27.4,2.4,27.4,35.4h-73.3
	c0-15.3,5.6-19.3,18.5-23.4c5.6-2.4,8.4-1.4,10.5-4.8C192.1,384.7,181,377.4,181,363.7z M178.6,362.1c0,10.5,4.9,15.8,8.3,25.6
	c1.2,3.5-4.6,4.2-9.5,5.8c-13.7,4.8-20.6,8.9-20.6,24.2c0,2.4,0.8,3.2,3.2,3.2h71.7c6.4,0,2.4-18.5-6.4-23.4c-6.4-4-18.5-4-19.3-8.9
	c-0.6-3.3,16.1-31.4-1.6-40.3C198.7,346,178.6,345.2,178.6,362.1z M219.3,361.9c0,10.5,6.7,23,6.8,26c0.1,3.9-0.8,2.4-4,3.2
	c2.4,4.8,5.6,0,5.6-2.4c0-1.6-19.3-39.5,8.1-39.5c19.3,0,15.3,22.6,8.9,34.6c-3.2,7.2,0.8,8.9,7.2,11.3c4,0.8,12.9,4.8,15.3,6.4
	c3.2,3.2,5.6,11.3,5.6,17.7h-32.2c-2.4,0-1.6,0-2.4,1.6H268c6.4,0,7.2,0.8,7.2-4.8c0-8.9-4-15.3-9.7-18.5c-7.2-4-19.2-4.6-20.1-8.8
	c-0.7-3.1,12.1-25.7,2.9-36c-0.8-0.9-1.5-2.3-4-3.8C240.1,346.4,219.3,345,219.3,361.9z"/>
<path id="icon-support" fill-rule="evenodd" clip-rule="evenodd" d="M346.6,28.1c2.4,0.2,3.6-3.6,2.8-6c-0.3-0.9-1.3-1.3-2.2-1.5
	c-3-10.3-17.1-10.6-20.1-0.3c-0.9,0.2-1.8,0.6-2.2,2.1c-1,3.1,1.4,6.9,4,6.4c0.5-0.1,0.4-1.2,0.4-1.7c0.2-4.4-1.1-7.8,2.1-10.3
	c3.4-2.7,8.5-2.9,11.7,0c2.9,2.6,2,4.2,2,10.2c0,0.8,0.5,0.5,0.3,0.8c-1.2,2.1-1.5,3-2.9,3.9c-1.3,0.8-0.8,0.4-3.6,1.1
	c-0.5,0.1,0.5-0.9-1.1-0.8c-1.5,0.1-1.3,1-1.3,1.5s0,1.4,1.1,1.4c1.3,0,1.1-0.7,1.4-0.8c2-0.5,2.7-0.6,4.1-1.5
	c1.5-0.9,2.6-2.2,3.1-3.5L346.6,28.1z"/>
<g id="g-step-signin">
	<path id="step-signin" d="M196.9,294.4c-0.1-0.1-5.7-4.9-7.8-6.8c-0.2-0.2-1.2-0.8-1.2-1c0-0.5,0-1.7-0.1-1.8l-2.4-1.5v0.1
		c0.1-0.3,0.1-0.6,0.2-0.8c0.8-4.8-1.1-9.8-4.9-12.9c-2.5-2.1-5.7-3.2-8.9-3.2c-4.1,0-8,1.9-10.8,5c-2.4,2.8-3.5,6.5-3.1,10.2
		s2.2,7.1,5,9.4c2.5,2.1,5.7,3.2,8.9,3.2l0,0c1.2,0,2.3-0.1,3.3-0.4h-0.1v1.6h2v1l2-0.1v1.1c0,0,0.5,0,1,0v0.9l2.9,0.1v2.9h1v1h1.9
		c0,1,0,0.9,0,1h2v2.9h1v1c0.4,0,7.1,0,7.8,0h1v-1h1v-9.2C198.8,295.9,197.8,295.1,196.9,294.4z M196.8,305.4H196h-6.1v-1.2v-3.7
		l-1.2,0.1l-3.7-0.1l-0.1-3.9H181v-1.9h-2.5v-0.5l-0.7-0.1v-1l0,0h-0.1h0.1l-1.5-1.5c-0.2,0.1-0.4,0.2-0.6,0.2
		c-1.3,0.5-2.6,0.7-4,0.7l0,0c-2.7,0-5.5-1-7.7-2.7c-2.5-2.1-4-4.9-4.3-8.1s0.5-6.5,2.7-8.7c2.7-2.8,5.6-4.2,9.2-4.3
		c2.7,0,5.5,1,7.7,2.7c3.2,2.6,4.8,7,4.2,11.1c-0.1,0.8-0.4,1.6-0.6,2.4c0.5,0.5,0.9,0.9,1.4,1.4c0.1,0,0.1,0,0.2,0.1l0,0l0,0v-0.1
		v0.1c0,0,1.3,0.5,1.3,0.7v1l9.4,7.8c0.2,0.1,0.3,0.2,0.4,0.3c0.4,0.3,1.1,0.4,1.1,1.3C196.8,297.1,196.8,305.3,196.8,305.4z
		 M169.4,273.3c-1.5,0-2.9,0.7-3.9,1.9c-1.8,2.2-1.5,5.3,0.7,7.2c0.9,0.8,2.1,1.2,3.2,1.2c1.5,0,2.9-0.7,3.9-1.9
		c0.9-1.1,1.3-2.4,1.2-3.7c-0.1-1.4-0.8-2.6-1.8-3.4C171.7,273.7,170.6,273.3,169.4,273.3z M171.8,280.3c-0.6,0.7-1.5,1.1-2.4,1.1
		c-0.7,0-1.4-0.3-2-0.7c-1.3-1.1-1.5-3-0.4-4.3c0.6-0.7,1.5-1.1,2.4-1.1c0.7,0,1.4,0.3,2,0.7c0.6,0.5,1,1.3,1.1,2.1
		C172.6,278.8,172.3,279.7,171.8,280.3z"/>
	<circle fill="none" stroke="#000000" stroke-miterlimit="10" cx="178.2" cy="287.1" r="42"/>
</g>
<path id="seo-rocket" d="M67.1,305.5L67.1,305.5c-0.2,0.7-0.5,1.3-0.7,2h-17l-0.7-2H67.1z M67.8,243.4l-0.9-2H48.1
	c-0.2,0.5-0.4,1-0.6,1.5l-0.2,0.5H67.8z M69.1,340.8v-23.2h-2v23.2H69.1z M48.9,340.8v-23.2h-2v23.2H48.9z M50.5,258.4
	c0-3.8,3.1-7,7-7c3.8,0,7,3.1,7,7c0,3.8-3.1,7-7,7C53.7,265.3,50.5,262.2,50.5,258.4z M52.5,258.4c0,2.7,2.2,4.9,4.9,4.9
	c2.7,0,4.9-2.2,4.9-4.9c0-2.7-2.2-4.9-4.9-4.9C54.8,253.4,52.5,255.7,52.5,258.4z M113.8,408.2c-1.3,7.9-7.7,14.8-15.7,17.5
	c-2.1,0.7-4.2,1-6.3,1.1c-4.2,0-8.2-1.5-11.4-4.3c-2.3,3.6-5.3,6.3-9.1,7.9c-2.6,1.1-5.3,1.7-8.4,1.7c-5,0-10.3-1.7-14.5-5
	c-2.7-2.2-4.8-4.8-6.2-7.7c-5.3,4.4-10.8,6.6-16,6.7c-2.2,0-4.4-0.4-6.6-1.2c-7.4-2.7-13-10-14.3-18.4c-1.2-7.5,1.3-14.3,6.9-19
	c-0.7-2.3-1-4.7-0.8-7.1c0.6-8,6-15.4,13.7-19c6.6-2.9,13.6-2.6,19.3,1.2c0.3-0.3,0.7-0.7,1.1-1c7.2-6.1,19-8.3,26.8-1.6
	c8.6-4.5,16.7-2.5,22.3,1.8c6.8,5.2,11.1,15,8.5,23.8C111.4,392.2,115.2,400.2,113.8,408.2z M102.4,387.6c-0.4,1-1,2-1.6,3l-1.7-1.1
	c5.9-9,1.6-20.5-5.6-26.1c-7-5.3-18.5-6.6-29.8,6.2l-1.5-1.3c2.7-3.1,5.5-5.4,8.2-7.1c-7-5.5-17.2-3.4-23.6,2.1
	c-6.5,5.6-10.1,16.1-1.2,28.6l-1.6,1c-8.5-11.9-6.4-22.3-0.9-28.8c-5.2-3.2-11.3-3.6-17.1-0.9c-7.1,3.2-12.1,10.1-12.6,17.2
	c-0.5,7.2,3.4,13.9,11.2,19.1l-1,1.7c-5-3.3-8.6-7.3-10.5-11.7c-4.7,4.2-6.8,10.2-5.7,16.7c1.2,7.6,6.5,14.3,13,16.7
	c6.6,2.4,14.2,0.5,21.2-5.5c-1-3-1.3-6.2-0.8-9.5l2,0.3c-1,6.7,1.6,12.9,7.1,17.1c6.1,4.7,14.2,6,20.8,3.1
	c6.9-2.9,11.2-10,12.2-19.8l2,0.2c-0.5,4.5-1.6,8.4-3.3,11.7c4.3,3.9,10.1,5.1,16,3.1c7.4-2.4,13.2-8.8,14.4-15.9
	C113,400.7,109.7,393.6,102.4,387.6z M59,350.9v-33.3h-2v33.3H59z M80.9,296.3v0.3c0,0.1,0,8.2-0.6,14.6l-0.4,6.8h-3.1
	c-2.9,0-4-0.3-4.4-1.2l-0.1-0.2l-2.2-9.9l-0.9-1.3c-0.8,2.3-1.6,4.7-2.6,7.1l-0.2,0.7H49.2l-0.2-0.7c-0.9-2.4-1.7-4.8-2.4-7.2
	l-1,1.5l-2.3,10c-0.3,1.2-1.8,1.4-4.3,1.4h-3.2l-0.4-6.9c-0.6-6.4-0.6-14.5-0.6-14.6v-0.3c0.9-3.6,5.9-7.1,7.5-8.2
	c-6.5-36.8,7.9-55.8,12.5-60.8c0.7-0.7,1.7-1.2,2.7-1.2s2,0.4,2.7,1.2c3.4,3.6,19.9,23.6,13.3,60.9C75.3,289.4,80,292.7,80.9,296.3z
	 M79.1,296.7c-0.7-2.3-3.8-4.9-6-6.4c0,0,0,0,0,0c-0.2-0.2-0.5-0.3-0.7-0.5c-0.4-0.3-0.7-0.7-1.1-1c0-0.2,0.1-0.4,0.1-0.4l0.3-1.4
	l0.1,0.1c6-35.8-9.6-54.9-12.9-58.4c-0.7-0.7-1.8-0.7-2.5,0c-1.8,1.9-5.2,6.1-8.1,12.7h0l-0.6,1.5c-4.1,9.9-7,24.8-3.1,45.5
	c0,0.1,0,0.2,0.1,0.3c-0.2,0.2-0.5,0.5-0.6,0.8c-0.4,0.3-0.7,0.6-1.1,0.9c0,0,0,0,0-0.1c-2.1,1.4-5.2,4-6,6.4c0,1.1,0,8.5,0.6,14.3
	l0.3,5H39c1.6,0,2.3-0.1,2.6-0.2l2.2-9.9l1.9-3c0,0,0-0.1,0-0.1c0.4-0.3,0.8-0.7,1.3-0.8c0.2-0.1,0.4-0.1,0.5-0.1c0,0,0.1,0,0.1,0.1
	c0.1,0.3,0.2,0.5,0.2,0.8c0.7,2.8,1.7,5.5,2.7,8.4h14.4c0.5-1.2,0.9-2.4,1.3-3.6h0.1l0.6-2c0.2-0.7,0.5-1.4,0.7-2.2l-0.1-0.2
	l0.1-0.4c0,0,0.2-0.5,0.4-1.2c0.1,0,0.1-0.1,0.2-0.1c0,0,0,0,0,0c0,0,0,0,0.1,0c0.6,0.3,1.1,0.8,1.5,1.3c0,0.1,0,0.1,0.1,0.2
	c0,0,0,0,0,0l1.9,3l2.2,9.8c0.3,0.1,1,0.2,2.6,0.2h1.4l0.3-4.9C79.1,305.1,79.1,297.7,79.1,296.7z"/>
<path id="start" d="M295.6,266c-2.6,2.6-2.6,6.9,0.1,9.5c2.7,2.6,7,2.6,9.6-0.1c2.6-2.6,2.6-6.9-0.1-9.5
	C302.5,263.3,298.2,263.4,295.6,266z M303.8,274c-1.9,1.9-4.9,1.9-6.8,0c-1.9-1.8-1.9-4.9,0-6.7c1.9-1.9,4.9-1.9,6.8,0
	C305.7,269.1,305.7,272.2,303.8,274z M323.5,251.3c0.1-1-0.4-2-1.1-2.7c-0.7-0.7-1.7-1-2.7-1c-6.6,0.3-29.6,3.5-50.2,33.1
	c-1.9-0.4-7.7-1.3-10.8,0.5l-0.2,0.2c-0.1,0.1-5.7,5.7-9.6,10.4l-4.4,5l0.6,0.6c0.2,0.2,0.4,0.4,0.6,0.6c0.3,0.3,0.6,0.6,1,1
	c1.7,1.7,2.9,2.6,4,2l8.4-5.3l1.7-0.4c-1.1,2.2-2.2,4.4-3.3,6.6l-0.3,0.6l11.9,11.6l0.6-0.3c2.3-1,4.5-2.1,6.6-3.1l-0.3,1.5
	l-5.2,8.3l-0.1,0.2c-0.3,0.9,0.2,1.8,2.2,3.8c0.3,0.3,0.7,0.7,0.9,0.9c0.3,0.3,0.5,0.5,0.6,0.6l0.6,0.6l4.9-4.4
	c4.8-4,10.3-9.5,10.4-9.6l0.2-0.2c1.8-3.1,0.9-8.5,0.4-10.5C321.2,280.9,323.4,256,323.5,251.3z M290.7,299.9c0,0-0.1,0.1-0.2,0.1
	c0,0,0,0,0,0c0,0-0.1,0.1-0.2,0.1c0,0,0,0.1-0.1,0.1c0,0-0.1,0-0.1,0.1c0,0,0,0,0,0c0,0,0,0,0,0c-0.4,0.3-0.9,0.5-1,1
	c0,0.2,0,0.3,0,0.5c0,0,0,0,0,0c0,0,0,0.1,0,0.1c0,0.1,0,0.1,0,0.2c0.1,0.2,0.1,0.5,0.2,0.7c0,0.1,0,0.2,0,0.3c0,0,0,0,0.1,0
	c0.5,2.4,0.9,6.3-0.2,8.4c-0.7,0.7-5.7,5.7-10.2,9.4l-3.6,3.2c-0.3-0.3-0.6-0.6-1-1c-1.1-1.1-1.5-1.6-1.7-1.9l5.1-8.2l0.7-3.3
	c0,0,0,0,0,0c0-0.4-0.3-1-0.8-1.1c-0.3-0.1-0.7-0.1-1-0.1c0,0,0,0-0.1,0c-0.6,0.3-1.3,0.6-1.9,0.9l0,0l-1.8,1l-0.1-0.1
	c-1.1,0.5-2.2,1.1-3.4,1.6l-10-9.7c1.2-2.5,2.3-5,3.7-7.3c0,0,0-0.1,0-0.1c0,0-0.1-0.1-0.1-0.2c-0.1-0.5-0.8-0.9-1.3-1.1
	c0,0-0.1,0-0.1-0.1c0,0,0,0,0,0c-0.1,0-0.1,0-0.2,0c-0.1,0-0.1,0-0.2,0l-3.1,0.7l-8.3,5.3c-0.3-0.1-0.8-0.5-2-1.6
	c-0.3-0.3-0.7-0.7-1-1l3.2-3.7c3.6-4.4,8.6-9.4,9.4-10.2c2.1-1.1,6-0.8,8.5-0.3c0,0,0,0,0,0c0,0,0,0,0,0c0.1,0,0.2,0,0.2,0.1
	c0.1,0,0.2,0,0.3,0c0,0,0,0,0,0c0.1,0,0.2,0,0.3,0c0.1,0,0.3,0,0.4,0c0.1,0,0.3,0,0.4-0.1c0,0,0.1,0,0.1,0c0.3-0.1,0.6-0.2,0.9-0.4
	c11.4-16.6,23.6-24.7,33.1-28.7l1.4-0.6l0,0c6.6-2.5,11.7-3.1,14.3-3.2c1,0,1.7,0.7,1.7,1.7C321.5,255.9,319.3,279.5,290.7,299.9z
	 M262.2,297l12.7,12.4c-0.6,0.3-1.2,0.6-1.9,0.9l-11.7-11.5L262.2,297z M303.6,253.6l0.5-0.2c0.5-0.2,1-0.4,1.4-0.6l13,12.6l-0.7,2
	L303.6,253.6z"/>
<path id="male" d="M467.2,332.6h-3.8c-10.3,0-35.4-1-35.4-10.1c0-1.8,3.5-6.6,4.3-7.5c2.7-4.3,13.4-7.3,19.6-9.1
	c0.7-0.2,1.3-0.4,1.9-0.5c0-4.1,0-4.1-0.5-4.5c-0.4-0.3-0.9-0.7-1.8-2.2c-4.1-5.9-6.2-15.9-6.2-22.7c0-9.2,2.9-16.7,7.8-20.4
	c2.3-2.5,7.9-3.8,9.4-3.9c1.4-0.2,4.1,0.1,5.5,0.2c4.3,0.4,10.3,5,13,7.8c5.6,5.9,5.6,24.2,1.9,32.5c-2.8,5.8-4.2,7.4-4.8,8.2
	c-0.5,0.6-0.5,0.6-0.5,2.7c0,0.6,0,1.3,0,2.2c0.6,0.2,1.2,0.3,1.9,0.5c6.3,1.8,17.8,4.9,20.6,9.2c2.6,4.6,4.5,7.1,3.7,9.1
	c-1,2.7-6.9,4.2-14.9,6.7C484.2,331.8,475.8,332.6,467.2,332.6z M467.9,252.4l-5.3,0c-3.7,0.8-6.7,1.6-8.9,3.9
	c-4.8,3.6-7.6,10.8-7.6,19.8c0,6.6,2.1,16.4,6.1,22.2c0.8,1.4,1.3,1.8,1.6,2c0.8,0.6,0.8,0.7,0.8,5.4v0.3l-0.3,0.1
	c-0.6,0.2-1.4,0.4-2.2,0.6c-5.8,1.6-16.6,4.7-19.3,8.8c-0.7,0.8-4,5.5-4,7c0,5.8,13.6,9.2,34.5,9.2h3.8c8.5,0,16.9-0.8,21.4-1.6
	c7.6-2.3,13.3-3.8,14.2-6.2c0.7-1.7-1.1-3.9-3.5-8.2c-2.6-4.1-14.4-7.4-20.1-9.1c-0.8-0.2-1.6-0.5-1.9-0.8c-0.4-0.4-0.6-2.1-0.6-2.8
	c0-2.3,0-2.4,0.7-3.3c0.6-0.7,2-2.3,4.7-8c3.6-8.2,4-22.6-1.5-31.7l-2.3-3.1C475.6,254.9,472,253.2,467.9,252.4z M466.6,315.8
	c-3.9,0-7.9-0.7-10.7-1.7c-6.6-3-6.7-6.1-7-6.8V307c0,0,0.6-0.2,0.8-0.3c4.3-1.4,4.2-0.2,4.1-3.5c0-0.6,0-1.3,0-2.1v-0.8l0.7,0.4
	c4.8,3,8.1,4.2,11.2,4.2c3.2,0,6.4-1.2,11.2-4.2l0.7-0.4v0.8c0,5.3,0.6,4.4,4.4,5.5l0.7,0.2l-0.3,1.1
	C481.4,312.9,475.3,315.8,466.6,315.8z M449.7,307.4c0.3,0.8,1,3.4,6.5,5.7c2.7,1.1,6.6,1.7,10.4,1.7c3,0,13.1-0.5,15.3-7.3
	c-1.7-0.8-5.2-0.5-5.2-5.5c-4.6,2.8-7.8,3.9-11,3.9c-3.2,0-6.4-1.1-11-3.9c0,0.5,0,0.9,0,1.3C454.8,307.1,454.8,306,449.7,307.4z
	 M485.4,280.4H485c-4.6,0-9.6-2-12.4-4.1c-1.8-1.3-2.2-1.8-3.8-3.7c1.2,1.8,3.8,6.5,3.8,6.5s-1,0-1.4,0c-2.7-0.1-10.7-5.5-14.3-8.6
	c-1.1-0.9-2.3-1.9-2.5-2c-2.1,0-2,2.3-3.2,5c-1,2.1-3.2,4.2-5.2,5.9l-0.3,0.7l0-1c-0.5-24.9,13-27.6,18.7-27.6
	c6.2,0,12.7,2.9,15.9,7.1c5.3,5.6,5.3,13.9,5.3,21.3L485.4,280.4z M466.1,270.9l1.5,0.4c2.6,1.3,4.3,3.3,6.5,4.9
	c2.7,2,6.7,3.4,10.8,3.5c0.2-7-0.4-15.2-5.4-20.4c-2.6-3.4-8.6-6.7-15.2-6.7c-5.4,0-17.8,2.5-18.2,25.5c1.4-1.5,3.4-3.1,4.2-4.8
	c1.3-2.7,1.4-5.6,4.1-5.6c0.4,0,0.9,0.4,3,2.2c3.1,2.7,10.1,7.6,14.2,8.7c-1.2-2.2-2.9-4.9-4.4-6.5L466.1,270.9z"/>
<path id="female" d="M389.6,329.1h-19.3c-13.1-0.8-23.5-4.3-27.3-9l-0.1-0.2l0-0.2c0.5-2.3,2.1-7.9,4.7-10.6c2.2-1.8,4-2.4,5.9-2.9
	c1.4-0.4,2.8-0.8,4.1-1.8c0.4-2.7,0.5-6.1,0.7-9.5c0.2-3.7,0.4-7.1,0.8-9.6c0.3-1.6,0.3-4,0.4-6.8c0.1-11.1,0.4-29.8,19.3-30.5h3.1
	c10.6,0.7,17.2,8.5,18.1,21.2c0.4,2.8,0.6,6.1,0.8,9.2c0.2,3.1,0.4,6.4,0.8,9.2c0,2.8,0.4,5.9,0.8,8.8c0.4,2.8,0.7,5.8,0.8,8.5
	c7.4,0.9,13,6.9,13.9,14.8l0,0.2l-0.1,0.1C413.1,324.8,402.6,328.2,389.6,329.1L389.6,329.1z M343.7,319.8
	c3.7,4.4,13.9,7.7,26.6,8.5l19.2,0c12.7-0.8,22.9-4.1,26.6-8.5c-0.9-7.5-6.4-13.2-13.5-13.9l-0.3,0v-0.4c0-2.8-0.4-5.8-0.8-8.8
	c-0.4-3-0.8-6-0.8-8.9c-0.4-2.8-0.6-6-0.8-9.2c-0.2-3.1-0.4-6.4-0.8-9.2c-0.5-7.3-3.4-19.5-17.4-20.5l-3.1,0
	c-18.1,0.6-18.3,18.1-18.5,29.7c0,2.8-0.1,5.3-0.4,6.9c-0.4,2.4-0.6,5.9-0.8,9.5c-0.2,3.4-0.4,7-0.8,9.7l0,0.2l-0.1,0.1
	c-1.5,1.1-2.9,1.6-4.4,2c-1.7,0.5-3.5,1.1-5.6,2.8C345.8,312.2,344.3,317.4,343.7,319.8z M370.5,297.9c-0.1-0.1-1.1-1.1-1.1-1.1
	s-0.1,6.5-0.7,6.7c-1.1,0.3-4.5,0.7-6.4,1.1c-1.2,0.3-3.1,0.2-4.4,0.5c0.3,0.2-3,1.1-3,1.5c1.1-0.3,6.3-0.4,7.4-0.7
	c2-0.5,5.8-0.8,7-1.2C371,304.3,370.3,298.2,370.5,297.9z M402.3,305c-1.2-0.1-3.1-0.1-4.7-0.4c-2.1-0.4-4.1-0.8-5.8-1.3l-0.9-5.7
	c0,0-0.8,0.7-0.8,0.7c0.1,0.4,0.9,5.7,0.9,5.7l0.3,0.1c1.7,0.5,3.9,0.9,6.1,1.4c1.5,0.3,3.8,0,4.9,0.3
	C402.3,305.5,402.3,305.3,402.3,305z M412.3,310.9c0,0-0.1,0.1-0.1,0.1c-6.5,5.4-16.5,6-23.6,6c-6.5,0.7-7.9,1.2-8.5,1.4l0,0
	c-0.4-0.1-1.7-0.6-8.5-1.4c-1.8,0-3-0.2-4.4-0.5c-1.3-0.2-2.7-0.5-4.6-0.5c-5.2,0-11.5-1.7-13.6-5.5c-0.4-0.5-0.5-0.6-0.8-1
	c-0.1,0-0.5,0.5-0.5,0.5l0.1,0.2c1.8,4.6,8.7,6.7,14.7,6.7c1.8,0,3,0.2,4.4,0.5c1.3,0.2,2.8,0.4,4.5,0.5c4.4,0.5,7.2,0.9,8.3,1.3
	c0.1,0,0.2,0.1,0.3,0.1c0.1,0,0.2,0,0.3-0.1c1.1-0.4,3.9-0.8,8.2-1.3c7.2,0,17.5-0.7,24.2-6.3C412.8,311.5,412.4,311,412.3,310.9z
	 M380.8,301.8c-12.2,0-16.2-12.1-18.7-19.4c-0.6-1.7-1.1-3.2-1.6-4.2l-0.3-0.7l0.8,0.1c0.6,0,1.3,0.1,1.9,0.1
	c8.7,0,15.2-5.6,22.8-10.6c1.2-0.8,2.6-1.7,3.6-2.8c0.4-0.4,1-1.8,1-1.8s0.7,2.7,1,3.5c1,3,1.6,4.4,2.3,5.6c1.2,2.1,1.9,2.9,6.5,7
	l0.2,0.2l-0.1,0.3c-0.3,0.6-0.6,1.6-1.1,2.9C397,288.4,392.5,301.8,380.8,301.8z M361.6,278.5c0.4,1,0.8,2.2,1.3,3.6
	c2.4,7,6.3,18.8,17.9,18.8c11.2,0,15.4-13,17.5-19.2c0.4-1.1,0.7-2.1,1-2.7c-4.5-4.1-5.6-5-6.5-6.9c-0.6-1.2-1.8-3.9-2.9-6.8
	c-0.9,0.8-2.3,2-3.4,2.7c-7.7,5.1-14.5,10.5-23.5,10.5C362.4,278.5,362,278.5,361.6,278.5z"/>
<path id="community" d="M395.4,448.1h-3.8c-10.3,0-35.4-1-35.4-10.1c0-1.8,3.5-6.6,4.3-7.5c2.7-4.3,13.4-7.3,19.6-9.1
	c0.7-0.2,1.3-0.4,1.9-0.5c0-4.1,0-4.1-0.5-4.5c-0.4-0.3-0.9-0.7-1.8-2.2c-4.1-5.9-6.2-15.9-6.2-22.7c0-9.2,2.9-16.7,7.8-20.4
	c2.3-2.5,7.9-3.8,9.4-3.9c1.4-0.2,4.1,0.1,5.5,0.2c4.3,0.4,10.3,5,13,7.8c5.6,5.9,5.6,24.2,1.9,32.5c-2.8,5.8-4.2,7.4-4.8,8.2
	c-0.5,0.6-0.5,0.6-0.5,2.7c0,0.6,0,1.3,0,2.2c0.6,0.2,1.2,0.3,1.9,0.5c6.3,1.8,17.8,4.9,20.6,9.2c2.6,4.6,4.5,7.1,3.7,9.1
	c-1,2.7-6.9,4.2-14.9,6.7C412.4,447.3,403.9,448.1,395.4,448.1z M396.1,367.9l-5.3,0c-3.7,0.8-6.7,1.6-8.9,3.9
	c-4.8,3.6-7.6,10.8-7.6,19.8c0,6.6,2.1,16.4,6.1,22.2c0.8,1.4,1.3,1.8,1.6,2c0.8,0.6,0.8,0.7,0.8,5.4v0.3l-0.3,0.1
	c-0.6,0.2-1.4,0.4-2.2,0.6c-5.8,1.6-16.6,4.7-19.3,8.8c-0.7,0.8-4,5.5-4,7c0,5.8,13.6,9.2,34.5,9.2h3.8c8.5,0,16.9-0.8,21.4-1.6
	c7.6-2.3,13.3-3.8,14.2-6.2c0.7-1.7-1.1-3.9-3.5-8.2c-2.6-4.1-14.4-7.4-20.1-9.1c-0.8-0.2-1.6-0.5-1.9-0.8c-0.4-0.4-0.6-2.1-0.6-2.8
	c0-2.3,0-2.4,0.7-3.3c0.6-0.7,2-2.3,4.7-8c3.6-8.2,4-22.6-1.5-31.7l-2.3-3.1C403.8,370.4,400.2,368.7,396.1,367.9z M394.8,431.3
	c-3.9,0-7.9-0.7-10.7-1.7c-6.6-3-6.7-6.1-7-6.8v-0.2c0,0,0.6-0.2,0.8-0.3c4.3-1.4,4.2-0.2,4.1-3.5c0-0.6,0-1.3,0-2.1v-0.8l0.7,0.4
	c4.8,3,8.1,4.2,11.2,4.2c3.2,0,6.4-1.2,11.2-4.2l0.7-0.4v0.8c0,5.3,0.6,4.4,4.4,5.5l0.7,0.2l-0.3,1.1
	C409.6,428.5,403.5,431.3,394.8,431.3z M377.9,422.9c0.3,0.8,1,3.4,6.5,5.7c2.7,1.1,6.6,1.7,10.4,1.7c3,0,13.1-0.5,15.3-7.3
	c-1.7-0.8-5.2-0.5-5.2-5.5c-4.6,2.8-7.8,3.9-11,3.9c-3.2,0-6.4-1.1-11-3.9c0,0.5,0,0.9,0,1.3C383,422.6,383,421.5,377.9,422.9z
	 M413.6,395.9h-0.4c-4.6,0-9.6-2-12.4-4.1c-1.8-1.3-2.2-1.8-3.8-3.7c1.2,1.8,3.8,6.5,3.8,6.5s-1,0-1.4,0c-2.7-0.1-10.7-5.5-14.3-8.6
	c-1.1-0.9-2.3-1.9-2.5-2c-2.1,0-2,2.3-3.2,5c-1,2.1-3.2,4.2-5.2,5.9l-0.3,0.7l0-1c-0.5-24.9,13-27.6,18.7-27.6
	c6.2,0,12.7,2.9,15.9,7.1c5.3,5.6,5.3,13.9,5.3,21.3L413.6,395.9z M394.3,386.4l1.5,0.4c2.6,1.3,4.3,3.3,6.5,4.9
	c2.7,2,6.7,3.4,10.8,3.5c0.2-7-0.4-15.2-5.4-20.4c-2.6-3.4-8.6-6.7-15.2-6.7c-5.4,0-17.8,2.5-18.2,25.5c1.4-1.5,3.4-3.1,4.2-4.8
	c1.3-2.7,1.4-5.6,4.1-5.6c0.4,0,0.9,0.4,3,2.2c3.1,2.7,10.1,7.6,14.2,8.7c-1.2-2.2-2.9-4.9-4.4-6.5L394.3,386.4z M460.9,428.1h-3.8
	c-10.3,0-35.4-1-35.4-10.1c0-1.8,3.5-6.6,4.3-7.5c2.7-4.3,13.4-7.3,19.6-9.1c0.7-0.2,1.3-0.4,1.9-0.5c0-4.1,0-4.1-0.5-4.5
	c-0.4-0.3-0.9-0.7-1.8-2.2c-4.1-5.9-6.2-15.9-6.2-22.7c0-9.2,2.9-16.7,7.8-20.4c2.3-2.5,7.9-3.8,9.4-3.9c1.4-0.2,4.1,0.1,5.5,0.2
	c4.3,0.4,10.3,5,13,7.8c5.6,5.9,5.6,24.2,1.9,32.5c-2.8,5.8-4.2,7.4-4.8,8.2c-0.5,0.6-0.5,0.6-0.5,2.7c0,0.6,0,1.3,0,2.2
	c0.6,0.2,1.2,0.3,1.9,0.5c6.3,1.8,17.8,4.9,20.6,9.2c2.6,4.6,4.5,7.1,3.7,9.1c-1,2.7-6.9,4.2-14.9,6.7
	C477.9,427.3,469.4,428.1,460.9,428.1z M461.6,347.9l-5.3,0c-3.7,0.8-6.7,1.6-8.9,3.9c-4.8,3.6-7.6,10.8-7.6,19.8
	c0,6.6,2.1,16.4,6.1,22.2c0.8,1.4,1.3,1.8,1.6,2c0.8,0.6,0.8,0.7,0.8,5.4v0.3l-0.3,0.1c-0.6,0.2-1.4,0.4-2.2,0.6
	c-5.8,1.6-16.6,4.7-19.3,8.8c-0.7,0.8-4,5.5-4,7c0,5.8,13.6,9.2,34.5,9.2h3.8c8.5,0,16.9-0.8,21.4-1.6c7.6-2.3,13.3-3.8,14.2-6.2
	c0.7-1.7-1.1-3.9-3.5-8.2c-2.6-4.1-14.4-7.4-20.1-9.1c-0.8-0.2-1.6-0.5-1.9-0.8c-0.4-0.4-0.6-2.1-0.6-2.8c0-2.3,0-2.4,0.7-3.3
	c0.6-0.7,2-2.3,4.7-8c3.6-8.2,4-22.6-1.5-31.7l-2.3-3.1C469.3,350.4,465.7,348.7,461.6,347.9z M460.3,411.3c-3.9,0-7.9-0.7-10.7-1.7
	c-6.6-3-6.7-6.1-7-6.8v-0.2c0,0,0.6-0.2,0.8-0.3c4.3-1.4,4.2-0.2,4.1-3.5c0-0.6,0-1.3,0-2.1v-0.8l0.7,0.4c4.8,3,8.1,4.2,11.2,4.2
	c3.2,0,6.4-1.2,11.2-4.2l0.7-0.4v0.8c0,5.3,0.6,4.4,4.4,5.5l0.7,0.2l-0.3,1.1C475.1,408.5,469,411.3,460.3,411.3z M443.4,402.9
	c0.3,0.8,1,3.4,6.5,5.7c2.7,1.1,6.6,1.7,10.4,1.7c3,0,13.1-0.5,15.3-7.3c-1.7-0.8-5.2-0.5-5.2-5.5c-4.6,2.8-7.8,3.9-11,3.9
	c-3.2,0-6.4-1.1-11-3.9c0,0.5,0,0.9,0,1.3C448.5,402.6,448.5,401.5,443.4,402.9z M479.1,375.9h-0.4c-4.6,0-9.6-2-12.4-4.1
	c-1.8-1.3-2.2-1.8-3.8-3.7c1.2,1.8,3.8,6.5,3.8,6.5s-1,0-1.4,0c-2.7-0.1-10.7-5.5-14.3-8.6c-1.1-0.9-2.3-1.9-2.5-2
	c-2.1,0-2,2.3-3.2,5c-1,2.1-3.2,4.2-5.2,5.9l-0.3,0.7l0-1c-0.5-24.9,13-27.6,18.7-27.6c6.2,0,12.7,2.9,15.9,7.1
	c5.3,5.6,5.3,13.9,5.3,21.3L479.1,375.9z M459.8,366.4l1.5,0.4c2.6,1.3,4.3,3.3,6.5,4.9c2.7,2,6.7,3.4,10.8,3.5
	c0.2-7-0.4-15.2-5.4-20.4c-2.6-3.4-8.6-6.7-15.2-6.7c-5.4,0-17.8,2.5-18.2,25.5c1.4-1.5,3.4-3.1,4.2-4.8c1.3-2.7,1.4-5.6,4.1-5.6
	c0.4,0,0.9,0.4,3,2.2c3.1,2.7,10.1,7.6,14.2,8.7c-1.2-2.2-2.9-4.9-4.4-6.5L459.8,366.4z M337.3,428.1H318c-13.1-0.8-23.5-4.3-27.3-9
	l-0.1-0.2l0-0.2c0.5-2.3,2.1-7.9,4.7-10.6c2.2-1.8,4-2.4,5.9-2.9c1.4-0.4,2.8-0.8,4.1-1.8c0.4-2.7,0.5-6.1,0.7-9.5
	c0.2-3.7,0.4-7.1,0.8-9.6c0.3-1.6,0.3-4,0.4-6.8c0.1-11.1,0.4-29.8,19.3-30.5h3.1c10.6,0.7,17.2,8.5,18.1,21.2
	c0.4,2.8,0.6,6.1,0.8,9.2c0.2,3.1,0.4,6.4,0.8,9.2c0,2.8,0.4,5.9,0.8,8.8c0.4,2.8,0.7,5.8,0.8,8.5c7.4,0.9,13,6.9,13.9,14.8l0,0.2
	l-0.1,0.1C360.8,423.8,350.4,427.3,337.3,428.1L337.3,428.1z M291.5,418.8c3.7,4.4,13.9,7.7,26.6,8.5l19.2,0
	c12.7-0.8,22.9-4.1,26.6-8.5c-0.9-7.5-6.4-13.2-13.5-13.9l-0.3,0v-0.4c0-2.8-0.4-5.8-0.8-8.8c-0.4-3-0.8-6-0.8-8.9
	c-0.4-2.8-0.6-6-0.8-9.2c-0.2-3.1-0.4-6.4-0.8-9.2c-0.5-7.3-3.4-19.5-17.4-20.5l-3.1,0c-18.1,0.6-18.3,18.1-18.5,29.7
	c0,2.8-0.1,5.3-0.4,6.9c-0.4,2.4-0.6,5.9-0.8,9.5c-0.2,3.4-0.4,7-0.8,9.7l0,0.2l-0.1,0.1c-1.5,1.1-2.9,1.6-4.4,2
	c-1.7,0.5-3.5,1.1-5.6,2.8C293.6,411.3,292.1,416.5,291.5,418.8z M318.2,396.9c-0.1-0.1-1.1-1.1-1.1-1.1s-0.1,6.5-0.7,6.7
	c-1.1,0.3-4.5,0.7-6.4,1.1c-1.2,0.3-3.1,0.2-4.4,0.5c0.3,0.2-3,1.1-3,1.5c1.1-0.3,6.3-0.4,7.4-0.7c2-0.5,5.8-0.8,7-1.2
	C318.8,403.3,318,397.2,318.2,396.9z M350,404.1c-1.2-0.1-3.1-0.1-4.7-0.4c-2.1-0.4-4.1-0.8-5.8-1.3l-0.9-5.7c0,0-0.8,0.7-0.8,0.7
	c0.1,0.4,0.9,5.7,0.9,5.7l0.3,0.1c1.7,0.5,3.9,0.9,6.1,1.4c1.5,0.3,3.8,0,4.9,0.3C350,404.5,350,404.4,350,404.1z M360.1,409.9
	c0,0-0.1,0.1-0.1,0.1c-6.5,5.4-16.5,6-23.6,6c-6.5,0.7-7.9,1.2-8.5,1.4l0,0c-0.4-0.1-1.7-0.6-8.5-1.4c-1.8,0-3-0.2-4.4-0.5
	c-1.3-0.2-2.7-0.5-4.6-0.5c-5.2,0-11.5-1.7-13.6-5.5c-0.4-0.5-0.5-0.6-0.8-1c-0.1,0-0.5,0.5-0.5,0.5l0.1,0.2
	c1.8,4.6,8.7,6.7,14.7,6.7c1.8,0,3,0.2,4.4,0.5c1.3,0.2,2.8,0.4,4.5,0.5c4.4,0.5,7.2,0.9,8.3,1.3c0.1,0,0.2,0.1,0.3,0.1
	c0.1,0,0.2,0,0.3-0.1c1.1-0.4,3.9-0.8,8.2-1.3c7.2,0,17.5-0.7,24.2-6.3C360.5,410.5,360.2,410,360.1,409.9z M328.5,400.8
	c-12.2,0-16.2-12.1-18.7-19.4c-0.6-1.7-1.1-3.2-1.6-4.2l-0.3-0.7l0.8,0.1c0.6,0,1.3,0.1,1.9,0.1c8.7,0,15.2-5.6,22.8-10.6
	c1.2-0.8,2.6-1.7,3.6-2.8c0.4-0.4,1-1.8,1-1.8s0.7,2.7,1,3.5c1,3,1.6,4.4,2.3,5.6c1.2,2.1,1.9,2.9,6.5,7l0.2,0.2l-0.1,0.3
	c-0.3,0.6-0.6,1.6-1.1,2.9C344.7,387.4,340.3,400.8,328.5,400.8z M309.3,377.5c0.4,1,0.8,2.2,1.3,3.6c2.4,7,6.3,18.8,17.9,18.8
	c11.2,0,15.4-13,17.5-19.2c0.4-1.1,0.7-2.1,1-2.7c-4.5-4.1-5.6-5-6.5-6.9c-0.6-1.2-1.8-3.9-2.9-6.8c-0.9,0.8-2.3,2-3.4,2.7
	c-7.7,5.1-14.5,10.5-23.5,10.5C310.1,377.6,309.7,377.5,309.3,377.5z"/>
</svg>
