<?xml version="1.0" encoding="utf-8"?>
<!-- Generator: Adobe Illustrator 17.1.0, SVG Export Plug-In . SVG Version: 6.00 Build 0)  -->
<!DOCTYPE svg PUBLIC "-//W3C//DTD SVG 1.1//EN" "http://www.w3.org/Graphics/SVG/1.1/DTD/svg11.dtd">
<svg version="1.1" id="Слой_1" xmlns="http://www.w3.org/2000/svg" xmlns:xlink="http://www.w3.org/1999/xlink" x="0px" y="0px"
	 viewBox="0 0 30 30" enable-background="new 0 0 30 30" xml:space="preserve">
<path id="icon-search" d="M10.5,0c4.4,0,8.4,2.8,9.9,7.3c1.9,5.6-1,11.8-6.5,13.8c-1.1,0.4-2.3,0.6-3.4,0.6c-4.4,0-8.4-2.8-9.9-7.3
	c-1.9-5.6,1-11.8,6.5-13.8C8.2,0.2,9.4,0,10.5,0 M10.5,3C9.7,3,8.8,3.1,8,3.4l0,0c-1.9,0.7-3.5,2.1-4.4,4s-1,4-0.3,6
	c1.1,3.2,4,5.3,7.2,5.3c0.8,0,1.7-0.1,2.5-0.4c1.9-0.7,3.5-2.1,4.4-4s1-4,0.3-6C16.7,5.1,13.8,3,10.5,3L10.5,3z M24,19.9l-2.5-0.2
	L19,17.2c-0.6,0.9-1,1.3-1.7,1.9c-0.1,0.1,2.3,2.5,2.3,2.5l0.3,2.5l5.9,5.9l4.2-4.2L24,19.9z"/>
</svg>
